<svg width="320" height="233" xmlns="http://www.w3.org/2000/svg"><defs><linearGradient x1="84.754%" y1="21.158%" x2="84.754%" y2="66.957%" id="a"><stop stop-color="#0098D8" stop-opacity="0" offset="0%"/><stop stop-color="#0098D8" offset="100%"/></linearGradient></defs><path d="M187.649 261.304c-1.972-9.606-4.62-17.34-6.739-23.506l-1.697-4.265-.749-1.925-.35-.91a503.923 503.923 0 0 1-2.914-6.433c-.166-.372-.323-.722-.467-1.048l-.462-.882a1578.295 1578.295 0 0 1-1.267-2.45l-.933-1.831c-.31-.594-.66-1.345-1.126-2.198-.489-.84-1.052-1.807-1.68-2.89l-2.055-3.603c-.796-1.284-1.708-2.64-2.64-4.115-.469-.737-.95-1.497-1.449-2.28-.51-.784-.648-.977-.787-1.17l-.848-1.177-3.577-5.028a172.38 172.38 0 0 0-19.656-21.83 169.218 169.218 0 0 0-26.728-20.418c-9.74-6.037-20.136-10.936-30.202-14.579-2.545-.83-5.03-1.697-7.471-2.519a407.77 407.77 0 0 1-7.264-2.06c-2.384-.582-4.721-1.074-6.965-1.62-.564-.128-1.116-.28-1.674-.388-2.764-.479-3.841-.669-4.897-.856l-3.096-.572-2.99-.362-5.516-.71c-1.745-.127-3.38-.244-4.89-.353a2055.3 2055.3 0 0 0-2.17-.175c-.692-.056-1.35-.127-1.982-.119-5.042-.09-7.923-.206-7.923-.206-.01 0-2.889.115-7.93.206-.633-.008-1.292.063-1.983.12-.692.054-1.416.113-2.171.174-1.51.11-3.145.226-4.89.353l-5.515.71-2.99.362-3.097.572-3.231.572c-2.223.392-2.776.544-3.339.672-2.245.546-4.582 1.038-6.966 1.62a407.77 407.77 0 0 1-7.264 2.06c-2.441.822-4.926 1.69-7.47 2.52-10.066 3.642-20.461 8.54-30.202 14.578a169.194 169.194 0 0 0-26.729 20.418 172.33 172.33 0 0 0-19.656 21.83 6859.59 6859.59 0 0 1-3.577 5.028l-.847 1.177c-.54.776-.666.973-.789 1.17l-1.447 2.28c-.933 1.475-1.845 2.832-2.64 4.115-.749 1.311-1.435 2.516-2.055 3.604l-1.68 2.89c-.468.852-.816 1.603-1.126 2.197l-.934 1.83-.561 1.09-.706 1.36-.46.883c-.146.326-.302.676-.47 1.048a405.923 405.923 0 0 1-2.524 5.58c-.503 1.15-.62 1.454-.74 1.763l-.748 1.925-1.697 4.265c-2.118 6.166-4.767 13.9-6.738 23.506a173.477 173.477 0 0 0-3.516 34.152H-271v-4.187a302.01 302.01 0 0 1 6.179-56.21c.96-4.25 1.9-8.32 2.816-12.208.214-.976.484-1.926.75-2.865l.782-2.788 1.527-5.372c.516-1.742.955-3.459 1.508-5.094l1.602-4.779c1.057-3.093 2.017-6.03 3.019-8.757l2.983-7.607 1.359-3.418.644-1.612.676-1.525 4.486-9.926.853-1.855.8-1.578 1.234-2.426.99-1.94 1.669-3.248c.552-1.054 1.203-2.372 2.03-3.886l2.944-5.15 3.682-6.371c1.4-2.281 2.979-4.71 4.643-7.316l2.594-4.023.674-1.04.723-1.03 1.481-2.099c2.01-2.826 4.106-5.812 6.358-8.878a301.218 301.218 0 0 1 34.707-38.602c13.873-12.997 29.995-25.47 47.304-36.1 1.06-.697 2.167-1.321 3.265-1.958l3.296-1.905 6.597-3.774c4.477-2.357 8.97-4.65 13.44-6.89 4.554-2.071 9.061-4.155 13.567-6.092 4.56-1.806 9.054-3.627 13.522-5.285 4.51-1.543 8.948-3.065 13.312-4.48 4.407-1.276 8.728-2.502 12.938-3.675 4.237-1.065 8.388-1.984 12.394-2.907 1.004-.222 1.994-.466 2.985-.66l2.952-.54 5.742-1.03c1.877-.33 3.715-.65 5.51-.965l5.292-.693c3.443-.438 6.709-.86 9.78-1.21L3.237.825 7.07.544C8.293.457 9.457.359 10.563.346 19.413.084 24.473 0 24.473 0c.016 0 5.074.084 13.925.346 1.106.013 2.271.11 3.493.198l3.834.282 8.626.675c3.073.351 6.338.773 9.78 1.211l5.293.693 5.511.965 5.741 1.03 2.953.54c.99.194 1.98.438 2.984.66 4.006.923 8.158 1.842 12.395 2.907 4.21 1.173 8.53 2.399 12.937 3.675 4.365 1.415 8.801 2.937 13.313 4.48 4.468 1.658 8.962 3.479 13.522 5.285 4.505 1.937 9.012 4.02 13.566 6.092 4.47 2.24 8.964 4.533 13.44 6.89l6.598 3.774 3.296 1.905c1.097.637 2.204 1.26 3.264 1.958 17.31 10.63 33.432 23.103 47.304 36.1a301.227 301.227 0 0 1 34.708 38.602c2.25 3.066 4.347 6.052 6.358 8.878l1.48 2.098.723 1.03.674 1.041 2.594 4.023c1.664 2.607 3.243 5.035 4.643 7.316 1.34 2.318 2.57 4.448 3.683 6.371l2.943 5.15c.827 1.514 1.478 2.832 2.03 3.886a3238.24 3238.24 0 0 0 1.67 3.249l.99 1.94 1.233 2.425.8 1.578.853 1.855 4.486 9.926.676 1.525.644 1.612 1.358 3.418c.93 2.366 1.924 4.903 2.984 7.607 1.002 2.727 1.962 5.664 3.02 8.757.518 1.55 1.053 3.143 1.601 4.779.553 1.635.992 3.352 1.51 5.094l1.524 5.372.784 2.788c.265.94.535 1.89.749 2.865.916 3.888 1.857 7.958 2.817 12.208A302.186 302.186 0 0 1 320 295.456H191.164a173.478 173.478 0 0 0-3.515-34.152z" transform="matrix(1 0 0 -1 0 295.456)" fill="url(#a)" fill-rule="evenodd"/></svg>