<svg xmlns="http://www.w3.org/2000/svg">
  <symbol viewBox="0 0 1792 1792" id="icon-arrow-right">
    <title>arrow-right</title>
    <path d="M1171 960q0 13-10 23l-466 466q-10 10-23 10t-23-10l-50-50q-10-10-10-23t10-23l393-393-393-393q-10-10-10-23t10-23l50-50q10-10 23-10t23 10l466 466q10 10 10 23z" />
  </symbol>
  <symbol viewBox="0 0 41 25" id="icon-bag">
    <title>bag</title>
    <path d="M14.379 6.07c.117.118.175.26.175.43 0 .17-.058.312-.175.43l-3.496 3.75a.654.654 0 0 1-.469.195H7.199v12.79a.548.548 0 0 1-.186.41.617.617 0 0 1-.439.175.617.617 0 0 1-.44-.176.548.548 0 0 1-.185-.41V10.875H1.054a.6.6 0 0 1-.439-.186.6.6 0 0 1-.186-.439v-7.5a.6.6 0 0 1 .186-.44.6.6 0 0 1 .44-.185h4.894l.02-1.29c0-.155.055-.292.166-.41a.553.553 0 0 1 .42-.175c.169 0 .315.059.439.176a.548.548 0 0 1 .185.41l.02 1.289h3.215a.654.654 0 0 1 .469.195l3.496 3.75zm11.45 15.919v1.042c0 .54-.195 1.004-.586 1.39-.391.386-.875.579-1.45.579h-2.06a1.995 1.995 0 0 1-1.438-.58c-.399-.385-.599-.848-.599-1.389V21.99h-.163c-.43 0-.794-.147-1.09-.44A1.42 1.42 0 0 1 18 20.506V1.482c0-.417.148-.768.443-1.053A1.508 1.508 0 0 1 19.533 0h19.934c.43 0 .794.143 1.09.429.295.285.443.636.443 1.053v19.024c0 .402-.148.75-.443 1.043-.296.293-.66.44-1.09.44h-.348v1.042c0 .54-.196 1.004-.587 1.39-.392.386-.875.579-1.45.579h-2.06a1.995 1.995 0 0 1-1.438-.58c-.399-.385-.599-.848-.599-1.389V21.99H25.83zm-4.6 0v.84a.83.83 0 0 0 .145.476c.095.142.215.213.359.213h2.06c.144 0 .264-.071.36-.213a.83.83 0 0 0 .143-.476v-.84H21.23zm13.29 0v.84a.83.83 0 0 0 .143.476c.096.142.216.213.36.213h2.06c.144 0 .264-.071.36-.213a.83.83 0 0 0 .143-.476v-.84H34.52zM10.14 9.625H1.68v-6.25h8.46L13.07 6.5l-2.93 3.125zm9.393 6.175h19.934v4.706H19.533V15.8zm0-1.8V1.482h19.934V14H19.533zm18.265 3.318a.75.75 0 0 1 .54.22.7.7 0 0 1 .227.521.7.7 0 0 1-.227.521.75.75 0 0 1-.54.22h-3.066a.75.75 0 0 1-.54-.22.7.7 0 0 1-.227-.521.7.7 0 0 1 .228-.521.75.75 0 0 1 .539-.22h3.066zm-13.288 0a.75.75 0 0 1 .539.22.7.7 0 0 1 .227.521.7.7 0 0 1-.227.521.75.75 0 0 1-.54.22h-3.066a.75.75 0 0 1-.54-.22.7.7 0 0 1-.227-.521.7.7 0 0 1 .228-.521.75.75 0 0 1 .539-.22h3.067z"
    fill-rule="evenodd" />
  </symbol>
  <symbol viewBox="0 0 15 16" id="icon-bus">
    <title>bus</title>
    <path d="M5.011 14.073v.667c0 .346-.125.642-.376.89-.25.246-.56.37-.927.37H2.389c-.358 0-.664-.124-.92-.37a1.193 1.193 0 0 1-.383-.89v-.667H.98a.952.952 0 0 1-.697-.282.909.909 0 0 1-.284-.667V.95C0 .682.095.457.284.274A.965.965 0 0 1 .98 0H13.74c.276 0 .508.091.697.274.19.183.284.408.284.675v12.175c0 .257-.095.48-.284.667a.952.952 0 0 1-.697.282h-.223v.667c0 .346-.125.642-.376.89-.25.246-.56.37-.927.37h-1.319c-.358 0-.664-.124-.92-.37a1.193 1.193 0 0 1-.383-.89v-.667H5.01zm-2.944 0v.538c0 .112.03.213.092.304.061.09.138.136.23.136h1.319c.092 0 .168-.045.23-.136a.532.532 0 0 0 .092-.304v-.538H2.067zm8.505 0v.538c0 .112.03.213.092.304.061.09.138.136.23.136h1.319c.092 0 .168-.045.23-.136a.532.532 0 0 0 .092-.304v-.538h-1.963zm-9.59-3.961h12.757v3.012H.98v-3.012zm0-1.152V.949h12.757V8.96H.98zm11.689 2.123a.48.48 0 0 1 .345.141.449.449 0 0 1 .146.334c0 .128-.049.24-.146.333a.48.48 0 0 1-.345.141h-1.963a.48.48 0 0 1-.345-.14.449.449 0 0 1-.145-.334c0-.129.048-.24.145-.334a.48.48 0 0 1 .345-.14h1.963zm-8.505 0a.48.48 0 0 1 .345.141.449.449 0 0 1 .146.334c0 .128-.049.24-.146.333a.48.48 0 0 1-.345.141H2.203a.48.48 0 0 1-.345-.14.449.449 0 0 1-.145-.334c0-.129.048-.24.145-.334a.48.48 0 0 1 .345-.14h1.963z"
    fill-rule="evenodd" />
  </symbol>
  <symbol viewBox="0 0 24 24" id="icon-clock">
    <title>clock</title>
    <path d="M12 0c-1.656 0-3.215.312-4.676.938a12.042 12.042 0 0 0-3.82 2.566 12.042 12.042 0 0 0-2.567 3.82A11.762 11.762 0 0 0 0 12c0 1.656.312 3.215.938 4.676a12.042 12.042 0 0 0 2.566 3.82 12.042 12.042 0 0 0 3.82 2.567c1.461.625 3.02.937 4.676.937 1.656 0 3.215-.312 4.676-.938a12.042 12.042 0 0 0 3.82-2.566 12.042 12.042 0 0 0 2.567-3.82c.625-1.461.937-3.02.937-4.676 0-1.656-.312-3.215-.938-4.676a12.042 12.042 0 0 0-2.566-3.82 12.042 12.042 0 0 0-3.82-2.567A11.762 11.762 0 0 0 12 0zm.68 12.314l.003.005a.838.838 0 0 1-.276.165c-.094.04-.578.03-.589.042H6.813a.68.68 0 0 1-.538-.207.68.68 0 0 1-.207-.539c0-.199.074-.373.223-.522a.715.715 0 0 1 .522-.224h4.437V4.5a.72.72 0 0 1 .223-.527A.72.72 0 0 1 12 3.75a.72.72 0 0 1 .527.223.72.72 0 0 1 .223.527V12c0 .11-.02.21-.059.305-.001.004-.005.007-.011.009zM12 22.524c1.453 0 2.816-.278 4.09-.833a10.597 10.597 0 0 0 3.328-2.261 10.842 10.842 0 0 0 2.25-3.34c.555-1.274.832-2.637.832-4.09 0-1.453-.277-2.816-.832-4.09a10.697 10.697 0 0 0-2.25-3.328 10.697 10.697 0 0 0-3.328-2.25A10.129 10.129 0 0 0 12 1.5c-1.453 0-2.816.277-4.09.832a10.697 10.697 0 0 0-3.328 2.25 10.697 10.697 0 0 0-2.25 3.328A10.129 10.129 0 0 0 1.5 12c0 1.453.277 2.816.832 4.09a10.842 10.842 0 0 0 2.25 3.34A10.597 10.597 0 0 0 7.91 21.69c1.274.555 2.637.832 4.09.832z"
    fill-rule="evenodd" />
  </symbol>
  <symbol viewBox="0 0 32 32" id="icon-compass">
    <title>compass</title>
    <path d="M22.912 8.758l-9.786 4.207a.933.933 0 0 0-.411.411l-4.483 9.038a.942.942 0 0 0 1.249 1.275l9.554-3.968a.933.933 0 0 0 .413-.39l4.715-9.278a.942.942 0 0 0-.145-1.111.943.943 0 0 0-1.105-.184zM11.183 20.776l2.719-5.553 2.746 3.437-5.465 2.116zm7.089-3.288l-2.775-3.473 5.524-2.18-2.75 5.653zM16 0C7.164 0 0 7.163 0 16s7.163 16 16 16 16-7.163 16-16S24.837 0 16 0zm0 30.032C8.28 30.032 2 23.72 2 16S8.28 2 16 2s14 6.28 14 14-6.28 14.032-14 14.032z"
    />
  </symbol>
  <symbol viewBox="0 0 13 16" id="icon-location">
    <title>location</title>
    <text transform="translate(-135 -110)" fill-rule="evenodd" font-family="simple-line-icons" font-size="16" letter-spacing="-.787">
      <tspan x="133.394" y="125">&#xE096;</tspan>
    </text>
  </symbol>
  <symbol viewBox="0 0 745.5 275" id="icon-logo-roi">
    <title>logo-roi</title>
    <g>
      <g>
        <path fill="#005CB9" d="M163.1,40.5c-57.1,0-85.5,32.1-85.5,83.5v110.5h109.8c57.1,0,85.5-32.1,85.5-83.6V40.5H163.1z" />
        <g>
          <path fill="#010101" d="M312,99.1v-48h20.4c5.1,0,8.8,0.4,11.2,1.3c2.3,0.9,4.2,2.4,5.6,4.6c1.4,2.2,2.1,4.7,2.1,7.6
				c0,3.6-1.1,6.6-3.2,8.9c-2.1,2.4-5.3,3.8-9.5,4.4c2.1,1.2,3.8,2.6,5.2,4c1.4,1.5,3.2,4.1,5.5,7.8l5.9,9.4h-11.6l-7-10.4
				c-2.5-3.7-4.2-6.1-5.1-7c-0.9-1-1.9-1.6-2.9-2c-1-0.4-2.6-0.5-4.9-0.5h-2v20H312z M321.6,71.4h7.2c4.7,0,7.5-0.2,8.7-0.6
				c1.2-0.4,2.1-1.1,2.7-2c0.7-1,1-2.2,1-3.6c0-1.6-0.4-2.9-1.3-3.9c-0.9-1-2.1-1.6-3.6-1.9c-0.8-0.1-3.1-0.2-7.1-0.2h-7.6V71.4z" />
          <path fill="#010101" d="M379,88l9.2,1.5c-1.2,3.4-3,5.9-5.6,7.7c-2.5,1.8-5.7,2.6-9.5,2.6c-6,0-10.5-2-13.4-5.9
				c-2.3-3.2-3.4-7.2-3.4-12c0-5.8,1.5-10.3,4.5-13.5c3-3.3,6.8-4.9,11.4-4.9c5.2,0,9.2,1.7,12.2,5.1c3,3.4,4.4,8.7,4.3,15.7h-23
				c0.1,2.7,0.8,4.8,2.2,6.4c1.4,1.5,3.2,2.3,5.3,2.3c1.4,0,2.7-0.4,3.6-1.2C377.7,91,378.5,89.8,379,88z M379.5,78.7
				c-0.1-2.7-0.8-4.7-2.1-6.1c-1.3-1.4-2.9-2.1-4.8-2.1c-2,0-3.7,0.7-5,2.2c-1.3,1.5-2,3.4-1.9,6H379.5z" />
          <path fill="#010101" d="M412.3,64.3v7.3h-6.3v14c0,2.8,0.1,4.5,0.2,5c0.1,0.5,0.4,0.9,0.8,1.2c0.4,0.3,0.9,0.5,1.6,0.5
				c0.8,0,2.1-0.3,3.7-0.9l0.8,7.1c-2.1,0.9-4.6,1.4-7.3,1.4c-1.7,0-3.2-0.3-4.5-0.8c-1.3-0.6-2.3-1.3-2.9-2.2
				c-0.6-0.9-1-2.1-1.3-3.6c-0.2-1.1-0.3-3.2-0.3-6.5V71.6h-4.2v-7.3h4.2v-6.9l9.2-5.4v12.3H412.3z" />
          <path fill="#010101" d="M441.6,99.1v-5.2c-1.3,1.9-2.9,3.3-5,4.4c-2.1,1.1-4.2,1.6-6.5,1.6c-2.3,0-4.4-0.5-6.3-1.5
				c-1.8-1-3.2-2.5-4-4.3c-0.8-1.9-1.2-4.4-1.2-7.7v-22h9.2v16c0,4.9,0.2,7.9,0.5,9c0.3,1.1,1,2,1.8,2.6c0.9,0.6,2,1,3.4,1
				c1.6,0,3-0.4,4.2-1.3c1.3-0.9,2.1-1.9,2.6-3.2c0.4-1.3,0.7-4.4,0.7-9.4V64.3h9.2v34.8H441.6z" />
          <path fill="#010101" d="M467.6,99.1h-9.2V64.3h8.5v4.9c1.5-2.3,2.8-3.9,3.9-4.6c1.2-0.7,2.5-1.1,4-1.1c2.1,0,4.1,0.6,6,1.7l-2.8,8
				c-1.5-1-3-1.5-4.3-1.5c-1.3,0-2.4,0.3-3.3,1.1c-0.9,0.7-1.6,2-2.1,3.8c-0.5,1.9-0.8,5.7-0.8,11.7V99.1z" />
          <path fill="#010101" d="M516.7,99.1h-9.2V81.3c0-3.8-0.2-6.2-0.6-7.3c-0.4-1.1-1-1.9-1.9-2.6c-0.9-0.6-1.9-0.9-3.2-0.9
				c-1.6,0-3,0.4-4.3,1.3c-1.3,0.9-2.1,2-2.6,3.5c-0.5,1.4-0.7,4.1-0.7,8v15.7H485V64.3h8.5v5.1c3-3.9,6.9-5.9,11.5-5.9
				c2,0,3.9,0.4,5.6,1.1c1.7,0.7,3,1.7,3.8,2.8c0.9,1.1,1.5,2.4,1.8,3.9c0.3,1.4,0.5,3.5,0.5,6.2V99.1z" />
          <path fill="#010101" d="M348.7,137.2c0-2,0.5-3.9,1.4-5.7c1-1.8,2.3-3.2,4.1-4.2c1.8-1,3.8-1.5,5.9-1.5c3.4,0,6.2,1.1,8.3,3.3
				c2.2,2.2,3.3,5,3.3,8.3c0,3.4-1.1,6.2-3.3,8.4c-2.2,2.2-4.9,3.3-8.2,3.3c-2.1,0-4-0.5-5.9-1.4c-1.9-0.9-3.3-2.3-4.3-4.1
				C349.2,142,348.7,139.8,348.7,137.2z M354.8,137.5c0,2.2,0.5,3.9,1.6,5.1c1.1,1.2,2.3,1.8,3.9,1.8c1.5,0,2.8-0.6,3.9-1.8
				c1-1.2,1.6-2.9,1.6-5.1c0-2.2-0.5-3.9-1.6-5.1c-1.1-1.2-2.3-1.8-3.9-1.8c-1.5,0-2.8,0.6-3.9,1.8
				C355.3,133.6,354.8,135.3,354.8,137.5z" />
          <path fill="#010101" d="M395.7,148.7h-5.9v-11.4c0-2.4-0.1-4-0.4-4.7c-0.2-0.7-0.7-1.3-1.2-1.7c-0.6-0.4-1.3-0.6-2.1-0.6
				c-1,0-1.9,0.3-2.8,0.8c-0.8,0.6-1.4,1.3-1.7,2.2c-0.3,0.9-0.5,2.6-0.5,5.1v10.1h-5.9v-22.4h5.5v3.3c2-2.5,4.4-3.8,7.4-3.8
				c1.3,0,2.5,0.2,3.6,0.7c1.1,0.5,1.9,1.1,2.4,1.8c0.6,0.7,0.9,1.6,1.2,2.5c0.2,0.9,0.3,2.3,0.3,4V148.7z" />
          <path fill="#010101" d="M311.6,218.8v-48h9.7v48H311.6z" />
          <path fill="#010101" d="M361.7,218.8h-9.2v-17.7c0-3.8-0.2-6.2-0.6-7.3c-0.4-1.1-1-2-1.9-2.6c-0.9-0.6-1.9-0.9-3.2-0.9
				c-1.6,0-3,0.4-4.3,1.3c-1.3,0.9-2.1,2-2.6,3.5c-0.5,1.4-0.7,4.1-0.7,8v15.7H330v-34.8h8.5v5.1c3-3.9,6.9-5.9,11.5-5.9
				c2,0,3.9,0.4,5.6,1.1c1.7,0.7,2.9,1.7,3.8,2.8c0.9,1.1,1.5,2.4,1.8,3.9c0.3,1.4,0.5,3.5,0.5,6.2V218.8z" />
          <path fill="#010101" d="M386.9,184.1v7.3h-6.3v14c0,2.8,0.1,4.5,0.2,5c0.1,0.5,0.4,0.9,0.8,1.2c0.4,0.3,0.9,0.5,1.6,0.5
				c0.8,0,2.1-0.3,3.7-0.9l0.8,7.1c-2.1,0.9-4.6,1.4-7.3,1.4c-1.7,0-3.2-0.3-4.5-0.8c-1.3-0.6-2.3-1.3-2.9-2.2
				c-0.6-0.9-1-2.1-1.3-3.6c-0.2-1.1-0.3-3.2-0.3-6.5v-15.2h-4.2v-7.3h4.2v-6.9l9.2-5.4v12.3H386.9z" />
          <path fill="#010101" d="M413.7,207.8l9.2,1.5c-1.2,3.4-3,5.9-5.6,7.7c-2.5,1.8-5.7,2.6-9.5,2.6c-6,0-10.5-2-13.4-5.9
				c-2.3-3.2-3.4-7.2-3.4-12c0-5.8,1.5-10.3,4.5-13.5c3-3.3,6.8-4.9,11.4-4.9c5.2,0,9.2,1.7,12.2,5.1c3,3.4,4.4,8.6,4.3,15.7h-23
				c0.1,2.7,0.8,4.8,2.2,6.4c1.4,1.5,3.2,2.3,5.3,2.3c1.4,0,2.6-0.4,3.6-1.2C412.4,210.8,413.2,209.5,413.7,207.8z M414.2,198.5
				c-0.1-2.7-0.8-4.7-2.1-6.1c-1.3-1.4-2.9-2.1-4.8-2.1c-2,0-3.7,0.7-5,2.2c-1.3,1.5-1.9,3.5-1.9,6H414.2z" />
          <path fill="#010101" d="M430.5,218.8v-48h9.2v48H430.5z" />
          <path fill="#010101" d="M448.3,218.8v-48h9.2v48H448.3z" />
          <path fill="#010101" d="M466.2,179.4v-8.5h9.2v8.5H466.2z M466.2,218.8v-34.8h9.2v34.8H466.2z" />
          <path fill="#010101" d="M483.3,221.1l10.5,1.3c0.2,1.2,0.6,2.1,1.2,2.5c0.9,0.7,2.2,1,4.1,1c2.4,0,4.2-0.4,5.4-1.1
				c0.8-0.5,1.4-1.3,1.8-2.3c0.3-0.8,0.4-2.2,0.4-4.2v-5.1c-2.8,3.7-6.2,5.6-10.4,5.6c-4.7,0-8.4-2-11.1-5.9
				c-2.1-3.1-3.2-7-3.2-11.7c0-5.8,1.4-10.3,4.2-13.3c2.8-3.1,6.3-4.6,10.4-4.6c4.3,0,7.9,1.9,10.6,5.7v-4.9h8.6v31.2
				c0,4.1-0.3,7.2-1,9.2c-0.7,2-1.6,3.6-2.9,4.8c-1.2,1.2-2.9,2.1-4.9,2.7c-2,0.7-4.6,1-7.7,1c-5.9,0-10.1-1-12.5-3
				c-2.5-2-3.7-4.6-3.7-7.7C483.2,221.9,483.2,221.6,483.3,221.1z M491.5,200.7c0,3.7,0.7,6.4,2.1,8.1c1.4,1.7,3.2,2.6,5.3,2.6
				c2.2,0,4.1-0.9,5.7-2.6c1.5-1.7,2.3-4.4,2.3-7.8c0-3.6-0.7-6.3-2.2-8c-1.5-1.7-3.4-2.6-5.6-2.6c-2.2,0-4,0.9-5.5,2.6
				C492.2,194.6,491.5,197.2,491.5,200.7z" />
          <path fill="#010101" d="M545.2,207.8l9.2,1.5c-1.2,3.4-3,5.9-5.6,7.7c-2.6,1.8-5.7,2.6-9.5,2.6c-6,0-10.5-2-13.4-5.9
				c-2.3-3.2-3.4-7.2-3.4-12c0-5.8,1.5-10.3,4.5-13.5c3-3.3,6.8-4.9,11.4-4.9c5.2,0,9.2,1.7,12.2,5.1c3,3.4,4.4,8.6,4.3,15.7h-23
				c0.1,2.7,0.8,4.8,2.2,6.4c1.4,1.5,3.2,2.3,5.3,2.3c1.4,0,2.6-0.4,3.6-1.2C543.9,210.8,544.7,209.5,545.2,207.8z M545.7,198.5
				c-0.1-2.7-0.7-4.7-2.1-6.1c-1.3-1.4-2.9-2.1-4.8-2.1c-2,0-3.7,0.7-5,2.2c-1.3,1.5-2,3.5-1.9,6H545.7z" />
          <path fill="#010101" d="M593.2,218.8H584v-17.7c0-3.8-0.2-6.2-0.6-7.3c-0.4-1.1-1-2-1.9-2.6c-0.9-0.6-1.9-0.9-3.2-0.9
				c-1.6,0-3,0.4-4.3,1.3c-1.3,0.9-2.1,2-2.6,3.5c-0.5,1.4-0.7,4.1-0.7,8v15.7h-9.2v-34.8h8.5v5.1c3-3.9,6.9-5.9,11.5-5.9
				c2,0,3.9,0.4,5.6,1.1c1.7,0.7,2.9,1.7,3.8,2.8c0.9,1.1,1.5,2.4,1.8,3.9c0.3,1.4,0.5,3.5,0.5,6.2V218.8z" />
          <path fill="#010101" d="M631.2,194.3l-9.1,1.6c-0.3-1.8-1-3.2-2.1-4.1c-1.1-0.9-2.5-1.4-4.2-1.4c-2.3,0-4.1,0.8-5.5,2.4
				c-1.4,1.6-2,4.2-2,7.9c0,4.1,0.7,7,2.1,8.7c1.4,1.7,3.2,2.5,5.6,2.5c1.7,0,3.2-0.5,4.3-1.5c1.1-1,1.9-2.7,2.4-5.1l9,1.5
				c-1,4.1-2.7,7.3-5.4,9.4c-2.7,2.1-6.2,3.2-10.7,3.2c-5.1,0-9.1-1.6-12.1-4.8c-3-3.2-4.5-7.6-4.5-13.3c0-5.7,1.5-10.2,4.6-13.4
				c3-3.2,7.1-4.8,12.3-4.8c4.2,0,7.6,0.9,10.1,2.7C628.3,187.8,630.1,190.6,631.2,194.3z" />
          <path fill="#010101" d="M658.3,207.8l9.2,1.5c-1.2,3.4-3,5.9-5.6,7.7c-2.5,1.8-5.7,2.6-9.5,2.6c-6,0-10.5-2-13.4-5.9
				c-2.3-3.2-3.4-7.2-3.4-12c0-5.8,1.5-10.3,4.5-13.5c3-3.3,6.8-4.9,11.4-4.9c5.2,0,9.3,1.7,12.2,5.1c3,3.4,4.4,8.6,4.3,15.7h-23
				c0.1,2.7,0.8,4.8,2.2,6.4c1.4,1.5,3.2,2.3,5.3,2.3c1.4,0,2.7-0.4,3.6-1.2C657,210.8,657.8,209.5,658.3,207.8z M658.8,198.5
				c-0.1-2.7-0.8-4.7-2.1-6.1c-1.3-1.4-2.9-2.1-4.8-2.1c-2,0-3.7,0.7-5,2.2c-1.3,1.5-1.9,3.5-1.9,6H658.8z" /> </g>
      </g>
      <g>
        <path fill="#FFFFFF" d="M246.4,152c0,23.4-8.1,39.9-24.8,50.4c-7.6,4.8-18.3,7.7-29.3,7.7c-14.6,0-29.8-5.3-38.9-18.6
			c-14.9-21.7-9.2-46.6,14.7-63.2c19.1-13.3,11.1-25.1,8.4-28.9c-6.8-9.9-25.8-9.4-34.6-3.9c-6.5,4.1-13.2,10.8-13.2,29.4v82.4H104
			v-82.4c0-23.4,8.1-39.9,24.8-50.4C146.5,63.5,181,62.3,197,85.5c14.9,21.7,9.1,46.5-14.7,63.2c-19.1,13.3-11.1,25.1-8.4,28.9
			c6.8,9.9,25.8,9.4,34.6,3.8c6.6-4.1,13.2-10.8,13.2-29.4v-47.9h24.7V152z" />
        <path fill="#FFFFFF" d="M234.1,91.9c-7.7,0-13.9-6.2-13.9-13.9c0-7.6,6.2-13.9,13.9-13.9c7.6,0,13.9,6.2,13.9,13.9
			C247.9,85.7,241.7,91.9,234.1,91.9z" /> </g>
    </g>
  </symbol>
  <symbol viewBox="0 0 242.5 32" id="icon-logo-technopolis">
    <title>logo-technopolis</title>
    <path class="st0" d="M8.1 14.4H15v12.1h5V14.4h6.9v-4.1H8.1zM28.9 26.5h17.9v-3.9h-13V20h12.1v-3.3H33.8v-2.6h12.7v-3.8H28.9zM48.6 20.8c0 4.7 2.7 5.8 7.1 5.8h8c5 0 5.9-2.1 5.9-4.9v-1.5h-4.9c0 2-.7 2.2-2.9 2.2h-5.3c-2.3 0-2.8-.9-2.8-3.2v-1.7c0-2 .5-3.2 3.1-3.2h5.4c1.5 0 2.3.3 2.3 1.5v.4h4.9c0-4.6-.9-6.1-7.9-6.1h-5.8c-4.5 0-7.1 1.1-7.1 5.8v4.9zM71.9 26.5h4.9v-6.1h10.4v6.1h5V10.3h-5v5.8H76.8v-5.8h-4.9zM95 26.5h5V14.8l9.3 11.7h7.7V10.3h-5v11.8l-9.3-11.8H95zM119.5 20.8c0 4.7 2.7 5.8 7.1 5.8h7.9c4.5 0 7.1-1.1 7.1-5.8V16c0-4.7-2.7-5.8-7.1-5.8h-7.9c-4.5 0-7.1 1.1-7.1 5.8v4.8zm5.1-3.3c0-2 .5-3.2 3.1-3.2h5.8c2.6 0 3.1 1.2 3.1 3.2v1.7c0 2.3-.5 3.2-2.8 3.2h-6.3c-2.3 0-2.8-.9-2.8-3.2v-1.7zM144.1 26.5h4.9v-4.1h9.8c3.5 0 4.5-2.8 4.5-5.2v-1.4c0-3.2-1.1-5.5-5.8-5.5H144v16.2zm5-12.1h7.3c1.5 0 2 .6 2 1.7v.6c0 1-.4 1.7-1.6 1.7h-7.7v-4zM164.9 20.8c0 4.7 2.7 5.8 7.1 5.8h7.9c4.5 0 7.1-1.1 7.1-5.8V16c0-4.7-2.7-5.8-7.1-5.8H172c-4.5 0-7.1 1.1-7.1 5.8v4.8zm5.1-3.3c0-2 .5-3.2 3.1-3.2h5.8c2.6 0 3.1 1.2 3.1 3.2v1.7c0 2.3-.5 3.2-2.8 3.2h-6.3c-2.3 0-2.8-.9-2.8-3.2v-1.7zM189.1 26.5h16.1v-4.2h-11.1v-12h-5zM207.1 10.3h4.9v16.1h-4.9zM214.1 22.3c0 3.5 1.8 4.3 6.3 4.3h6c6.6 0 8-.7 8-5.1 0-4.7-1.8-5.2-9.5-5.1-5.3 0-5.9 0-5.9-1.4 0-.9.8-1.2 1.9-1.2h5.5c2.3 0 2.4.5 2.4 1.7h4.9V15c0-2.8-.5-4.8-6.2-4.8h-6.9c-6.2 0-6.5 2.3-6.5 5.2 0 4 .8 4.9 8.3 4.9 6.4 0 7 .1 7 1.5 0 1.2-1.1 1.4-2.1 1.4h-6.1c-1.4 0-2.1-.1-2.1-1.8h-4.9v.9z"
    />
    <g>
      <path class="st1" d="M261.1 14.4h6.9v12.1h5V14.4h6.9v-4.1h-18.8zM281.9 26.5h17.9v-3.9h-13V20h12.1v-3.3h-12.1v-2.6h12.7v-3.8h-17.6zM301.6 20.8c0 4.7 2.7 5.8 7.1 5.8h8c5 0 5.9-2.1 5.9-4.9v-1.5h-4.9c0 2-.7 2.2-2.9 2.2h-5.3c-2.3 0-2.8-.9-2.8-3.2v-1.7c0-2 .5-3.2 3.1-3.2h5.4c1.5 0 2.3.3 2.3 1.5v.4h4.9c0-4.6-.9-6.1-7.9-6.1h-5.8c-4.5 0-7.1 1.1-7.1 5.8v4.9zM324.9 26.5h4.9v-6.1h10.4v6.1h5V10.3h-5v5.8h-10.4v-5.8h-4.9zM348 26.5h5V14.8l9.3 11.7h7.7V10.3h-5v11.8l-9.3-11.8H348zM372.5 20.8c0 4.7 2.7 5.8 7.1 5.8h7.9c4.5 0 7.1-1.1 7.1-5.8V16c0-4.7-2.7-5.8-7.1-5.8h-7.9c-4.5 0-7.1 1.1-7.1 5.8v4.8zm5.1-3.3c0-2 .5-3.2 3.1-3.2h5.8c2.6 0 3.1 1.2 3.1 3.2v1.7c0 2.3-.5 3.2-2.8 3.2h-6.3c-2.3 0-2.8-.9-2.8-3.2v-1.7zM397.1 26.5h4.9v-4.1h9.8c3.5 0 4.5-2.8 4.5-5.2v-1.4c0-3.2-1.1-5.5-5.8-5.5H397v16.2zm5-12.1h7.3c1.5 0 2 .6 2 1.7v.6c0 1-.4 1.7-1.6 1.7h-7.7v-4zM417.9 20.8c0 4.7 2.7 5.8 7.1 5.8h7.9c4.5 0 7.1-1.1 7.1-5.8V16c0-4.7-2.7-5.8-7.1-5.8H425c-4.5 0-7.1 1.1-7.1 5.8v4.8zm5.1-3.3c0-2 .5-3.2 3.1-3.2h5.8c2.6 0 3.1 1.2 3.1 3.2v1.7c0 2.3-.5 3.2-2.8 3.2h-6.3c-2.3 0-2.8-.9-2.8-3.2v-1.7zM442.1 26.5h16.1v-4.2h-11.1v-12h-5zM460.1 10.3h4.9v16.1h-4.9zM467.1 22.3c0 3.5 1.8 4.3 6.3 4.3h6c6.6 0 8-.7 8-5.1 0-4.7-1.8-5.2-9.5-5.1-5.3 0-5.9 0-5.9-1.4 0-.9.8-1.2 1.9-1.2h5.5c2.3 0 2.4.5 2.4 1.7h4.9V15c0-2.8-.5-4.8-6.2-4.8h-6.9c-6.2 0-6.5 2.3-6.5 5.2 0 4 .8 4.9 8.3 4.9 6.4 0 7 .1 7 1.5 0 1.2-1.1 1.4-2.1 1.4h-6.1c-1.4 0-2.1-.1-2.1-1.8h-4.9v.9z"
      />
    </g>
  </symbol>
  <symbol viewBox="0 0 17 16" id="icon-phone">
    <title>phone</title>
    <text transform="translate(-20 -657)" fill-rule="evenodd" font-family="simple-line-icons" font-size="16" letter-spacing="-.787">
      <tspan x="20.394" y="672">&#xE600;</tspan>
    </text>
  </symbol>
</svg>