<svg viewBox="0 0 41 25" xmlns="http://www.w3.org/2000/svg"><path d="M14.379 6.07c.117.118.175.26.175.43 0 .17-.058.312-.175.43l-3.496 3.75a.654.654 0 0 1-.469.195H7.199v12.79a.548.548 0 0 1-.186.41.617.617 0 0 1-.439.175.617.617 0 0 1-.44-.176.548.548 0 0 1-.185-.41V10.875H1.054a.6.6 0 0 1-.439-.186.6.6 0 0 1-.186-.439v-7.5a.6.6 0 0 1 .186-.44.6.6 0 0 1 .44-.185h4.894l.02-1.29c0-.155.055-.292.166-.41a.553.553 0 0 1 .42-.175c.169 0 .315.059.439.176a.548.548 0 0 1 .185.41l.02 1.289h3.215a.654.654 0 0 1 .469.195l3.496 3.75zm11.45 15.919v1.042c0 .54-.195 1.004-.586 1.39-.391.386-.875.579-1.45.579h-2.06a1.995 1.995 0 0 1-1.438-.58c-.399-.385-.599-.848-.599-1.389V21.99h-.163c-.43 0-.794-.147-1.09-.44A1.42 1.42 0 0 1 18 20.506V1.482c0-.417.148-.768.443-1.053A1.508 1.508 0 0 1 19.533 0h19.934c.43 0 .794.143 1.09.429.295.285.443.636.443 1.053v19.024c0 .402-.148.75-.443 1.043-.296.293-.66.44-1.09.44h-.348v1.042c0 .54-.196 1.004-.587 1.39-.392.386-.875.579-1.45.579h-2.06a1.995 1.995 0 0 1-1.438-.58c-.399-.385-.599-.848-.599-1.389V21.99H25.83zm-4.6 0v.84a.83.83 0 0 0 .145.476c.095.142.215.213.359.213h2.06c.144 0 .264-.071.36-.213a.83.83 0 0 0 .143-.476v-.84H21.23zm13.29 0v.84a.83.83 0 0 0 .143.476c.096.142.216.213.36.213h2.06c.144 0 .264-.071.36-.213a.83.83 0 0 0 .143-.476v-.84H34.52zM10.14 9.625H1.68v-6.25h8.46L13.07 6.5l-2.93 3.125zm9.393 6.175h19.934v4.706H19.533V15.8zm0-1.8V1.482h19.934V14H19.533zm18.265 3.318a.75.75 0 0 1 .54.22.7.7 0 0 1 .227.521.7.7 0 0 1-.227.521.75.75 0 0 1-.54.22h-3.066a.75.75 0 0 1-.54-.22.7.7 0 0 1-.227-.521.7.7 0 0 1 .228-.521.75.75 0 0 1 .539-.22h3.066zm-13.288 0a.75.75 0 0 1 .539.22.7.7 0 0 1 .227.521.7.7 0 0 1-.227.521.75.75 0 0 1-.54.22h-3.066a.75.75 0 0 1-.54-.22.7.7 0 0 1-.227-.521.7.7 0 0 1 .228-.521.75.75 0 0 1 .539-.22h3.067z" fill-rule="evenodd"/></svg>