<svg viewBox="0 0 88 80" xmlns="http://www.w3.org/2000/svg"><g fill="#9B9B9B" fill-rule="evenodd"><path d="M7.988 33.007h31.93a2 2 0 0 1 2 2v23.018a2 2 0 0 1-2 2H7.988a2 2 0 0 1-2-2V35.007a2 2 0 0 1 2-2zM40.702 63.66c-.842-.422-1.918.367-3.228.367-1.31 0-2.386-.777-3.228-.332-.842.446-1.264.973-1.264 1.583s.422 1.138 1.264 1.583c.842.446 1.918.669 3.228.669 1.31 0 2.386-.223 3.228-.669.842-.445 1.263-.973 1.263-1.583s-.421-1.149-1.263-1.618zm-26.948 0c-.842-.422-1.918.367-3.228.367-1.31 0-2.386-.777-3.228-.332-.842.446-1.263.973-1.263 1.583s.421 1.138 1.263 1.583c.842.446 1.918.669 3.228.669 1.31 0 2.386-.223 3.228-.669.842-.445 1.264-.973 1.264-1.583s-.422-1.149-1.264-1.618zM0 64.943V34.97c0-4.785.062-8.975 4.18-10.57 4.116-1.595 12.054-1.392 19.82-1.392s15.704-.203 19.82 1.392C47.939 25.995 48 30.185 48 34.97v29.973c0 2.627-1.03 4.878-3.088 6.755v5.347c0 .844-.28 1.548-.842 2.11-.561.564-1.263.845-2.105.845h-2.947a3.093 3.093 0 0 1-2.176-.844c-.608-.563-.912-1.267-.912-2.111v-3.096H12.07v3.096c0 .844-.304 1.548-.912 2.11A3.093 3.093 0 0 1 8.982 80H6.035c-.842 0-1.544-.281-2.105-.844-.562-.563-.842-1.267-.842-2.111v-5.347C1.029 69.82 0 67.57 0 64.943zM54.087 17v-1.212l4.973-6.176v-.14h-4.94V7.96h7.073v1.304l-4.864 6.084v.141h4.914V17h-7.156zm9.003 0v-1.336l6.508-8.808v-.14H63.29V5.021h8.64v1.336l-6.474 8.808v.14h6.633V17H63.09zm11.403 0v-1.887L83.68 2.68v-.2h-8.906V.09h12.2v1.887L77.832 14.41v.2h9.363V17H74.493z"/></g></svg>
