<svg viewBox="0 0 15 16" xmlns="http://www.w3.org/2000/svg"><path d="M5.011 14.073v.667c0 .346-.125.642-.376.89-.25.246-.56.37-.927.37H2.389c-.358 0-.664-.124-.92-.37a1.193 1.193 0 0 1-.383-.89v-.667H.98a.952.952 0 0 1-.697-.282.909.909 0 0 1-.284-.667V.95C0 .682.095.457.284.274A.965.965 0 0 1 .98 0H13.74c.276 0 .508.091.697.274.19.183.284.408.284.675v12.175c0 .257-.095.48-.284.667a.952.952 0 0 1-.697.282h-.223v.667c0 .346-.125.642-.376.89-.25.246-.56.37-.927.37h-1.319c-.358 0-.664-.124-.92-.37a1.193 1.193 0 0 1-.383-.89v-.667H5.01zm-2.944 0v.538c0 .112.03.213.092.304.061.09.138.136.23.136h1.319c.092 0 .168-.045.23-.136a.532.532 0 0 0 .092-.304v-.538H2.067zm8.505 0v.538c0 .112.03.213.092.304.061.09.138.136.23.136h1.319c.092 0 .168-.045.23-.136a.532.532 0 0 0 .092-.304v-.538h-1.963zm-9.59-3.961h12.757v3.012H.98v-3.012zm0-1.152V.949h12.757V8.96H.98zm11.689 2.123a.48.48 0 0 1 .345.141.449.449 0 0 1 .146.334c0 .128-.049.24-.146.333a.48.48 0 0 1-.345.141h-1.963a.48.48 0 0 1-.345-.14.449.449 0 0 1-.145-.334c0-.129.048-.24.145-.334a.48.48 0 0 1 .345-.14h1.963zm-8.505 0a.48.48 0 0 1 .345.141.449.449 0 0 1 .146.334c0 .128-.049.24-.146.333a.48.48 0 0 1-.345.141H2.203a.48.48 0 0 1-.345-.14.449.449 0 0 1-.145-.334c0-.129.048-.24.145-.334a.48.48 0 0 1 .345-.14h1.963z" fill-rule="evenodd"/></svg>
