<svg viewBox="0 0 24 24" xmlns="http://www.w3.org/2000/svg"><path d="M12 0c-1.656 0-3.215.312-4.676.938a12.042 12.042 0 0 0-3.82 2.566 12.042 12.042 0 0 0-2.567 3.82A11.762 11.762 0 0 0 0 12c0 1.656.312 3.215.938 4.676a12.042 12.042 0 0 0 2.566 3.82 12.042 12.042 0 0 0 3.82 2.567c1.461.625 3.02.937 4.676.937 1.656 0 3.215-.312 4.676-.938a12.042 12.042 0 0 0 3.82-2.566 12.042 12.042 0 0 0 2.567-3.82c.625-1.461.937-3.02.937-4.676 0-1.656-.312-3.215-.938-4.676a12.042 12.042 0 0 0-2.566-3.82 12.042 12.042 0 0 0-3.82-2.567A11.762 11.762 0 0 0 12 0zm.68 12.314l.003.005a.838.838 0 0 1-.276.165c-.094.04-.578.03-.589.042H6.813a.68.68 0 0 1-.538-.207.68.68 0 0 1-.207-.539c0-.199.074-.373.223-.522a.715.715 0 0 1 .522-.224h4.437V4.5a.72.72 0 0 1 .223-.527A.72.72 0 0 1 12 3.75a.72.72 0 0 1 .527.223.72.72 0 0 1 .223.527V12c0 .11-.02.21-.059.305-.001.004-.005.007-.011.009zM12 22.524c1.453 0 2.816-.278 4.09-.833a10.597 10.597 0 0 0 3.328-2.261 10.842 10.842 0 0 0 2.25-3.34c.555-1.274.832-2.637.832-4.09 0-1.453-.277-2.816-.832-4.09a10.697 10.697 0 0 0-2.25-3.328 10.697 10.697 0 0 0-3.328-2.25A10.129 10.129 0 0 0 12 1.5c-1.453 0-2.816.277-4.09.832a10.697 10.697 0 0 0-3.328 2.25 10.697 10.697 0 0 0-2.25 3.328A10.129 10.129 0 0 0 1.5 12c0 1.453.277 2.816.832 4.09a10.842 10.842 0 0 0 2.25 3.34A10.597 10.597 0 0 0 7.91 21.69c1.274.555 2.637.832 4.09.832z" fill-rule="evenodd"/></svg>