<svg xmlns="http://www.w3.org/2000/svg" viewBox="0 0 32 32"><path d="M22.912 8.758l-9.786 4.207a.933.933 0 0 0-.411.411l-4.483 9.038a.942.942 0 0 0 1.249 1.275l9.554-3.968a.933.933 0 0 0 .413-.39l4.715-9.278a.942.942 0 0 0-.145-1.111.943.943 0 0 0-1.105-.184zM11.183 20.776l2.719-5.553 2.746 3.437-5.465 2.116zm7.089-3.288l-2.775-3.473 5.524-2.18-2.75 5.653zM16 0C7.164 0 0 7.163 0 16s7.163 16 16 16 16-7.163 16-16S24.837 0 16 0zm0 30.032C8.28 30.032 2 23.72 2 16S8.28 2 16 2s14 6.28 14 14-6.28 14.032-14 14.032z"/></svg>