<svg viewBox="0 0 13 16" xmlns="http://www.w3.org/2000/svg"><path d="M6.456 0c.938 0 1.776.161 2.516.484.74.323 1.362.763 1.867 1.32.505.558.89 1.206 1.156 1.946.266.74.399 1.52.399 2.344 0 .833-.164 1.685-.493 2.554-.328.87-.742 1.724-1.242 2.563-.5.838-1.041 1.633-1.625 2.383a45.11 45.11 0 0 1-1.64 2c0 .01-.079.08-.235.21a.828.828 0 0 1-.547.196h-.047a.82.82 0 0 1-.554-.195c-.151-.13-.227-.2-.227-.211a323.864 323.864 0 0 1-1.758-2.047 23.323 23.323 0 0 1-1.75-2.336A15.309 15.309 0 0 1 .933 8.687a6.712 6.712 0 0 1-.54-2.593c0-.823.162-1.604.485-2.344.323-.74.76-1.388 1.312-1.945A6.204 6.204 0 0 1 4.12.485 5.74 5.74 0 0 1 6.456 0zm.188 14.922a35.929 35.929 0 0 0 2.078-2.594 21.328 21.328 0 0 0 1.484-2.336c.396-.734.693-1.427.89-2.078.199-.651.298-1.258.298-1.82 0-.636-.097-1.258-.29-1.867a4.68 4.68 0 0 0-.898-1.633 4.49 4.49 0 0 0-1.539-1.156C8.047 1.145 7.31 1 6.457 1a4.79 4.79 0 0 0-1.954.406 5.173 5.173 0 0 0-1.61 1.102A5.313 5.313 0 0 0 1.8 4.133a4.845 4.845 0 0 0-.406 1.96c0 .74.156 1.49.468 2.25.313.761.709 1.509 1.188 2.243s1.005 1.443 1.578 2.125c.573.682 1.115 1.32 1.625 1.914l.266.297.062.062c.01-.01.024-.02.04-.03.015-.011.023-.022.023-.032zM6.409 3.016a2.88 2.88 0 0 1 2.125.882 2.9 2.9 0 0 1 .875 2.118c0 .833-.291 1.541-.875 2.125a2.893 2.893 0 0 1-2.125.875 2.9 2.9 0 0 1-2.117-.875 2.88 2.88 0 0 1-.883-2.125c0-.823.294-1.529.883-2.118a2.888 2.888 0 0 1 2.117-.882zm0 5c.552 0 1.021-.198 1.406-.594.386-.396.579-.87.579-1.422 0-.552-.196-1.023-.586-1.414A1.927 1.927 0 0 0 6.394 4c-.552 0-1.024.195-1.414.586-.391.39-.586.862-.586 1.414 0 .552.198 1.026.593 1.422.396.396.87.594 1.422.594z" fill-rule="evenodd"/></svg>
