<svg viewBox="0 0 107 36" xmlns="http://www.w3.org/2000/svg"><g fill="none" fill-rule="evenodd"><path d="M42.54 10.657V2.002h3.692c.923 0 1.593.072 2.027.234.417.162.76.433 1.014.83.254.396.38.847.38 1.37 0 .65-.199 1.19-.579 1.605-.38.433-.96.685-1.72.793.38.217.688.469.942.721.253.271.579.74.995 1.407l1.068 1.695h-2.1l-1.267-1.875c-.452-.668-.76-1.1-.923-1.263a1.375 1.375 0 0 0-.525-.36c-.18-.072-.47-.09-.887-.09h-.362v3.606H42.54v-.018zm1.737-4.995h1.303c.851 0 1.358-.036 1.575-.108a.922.922 0 0 0 .489-.36c.127-.181.181-.397.181-.65 0-.288-.072-.523-.235-.703-.163-.18-.38-.289-.652-.343-.145-.018-.561-.036-1.285-.036h-1.376v2.2zm10.39 2.993l1.666.27c-.217.614-.543 1.065-1.014 1.39-.452.324-1.032.468-1.72.468-1.086 0-1.9-.36-2.425-1.064-.416-.577-.616-1.298-.616-2.164 0-1.045.272-1.857.815-2.434.543-.595 1.23-.883 2.064-.883.94 0 1.665.306 2.208.92.543.612.796 1.568.778 2.83H52.26c.018.487.145.866.398 1.154.254.27.58.415.96.415.253 0 .488-.072.651-.216.163-.145.308-.361.399-.686zm.091-1.677c-.018-.486-.145-.847-.38-1.1a1.141 1.141 0 0 0-.869-.378c-.362 0-.67.126-.905.397-.235.27-.362.613-.344 1.081h2.498zm5.937-2.596v1.316h-1.14v2.525c0 .505.018.811.036.901.018.09.073.163.145.217.072.054.163.09.29.09.144 0 .38-.054.67-.162l.144 1.28c-.38.162-.832.252-1.321.252-.308 0-.58-.054-.815-.144-.235-.108-.416-.234-.525-.397-.108-.162-.18-.378-.235-.649-.036-.198-.054-.577-.054-1.172V5.7h-.76V4.381h.76V3.138l1.665-.974v2.218h1.14zM66 10.657v-.938a2.406 2.406 0 0 1-.905.794c-.38.198-.76.288-1.176.288-.417 0-.797-.09-1.14-.27-.327-.18-.58-.451-.725-.776-.145-.342-.217-.793-.217-1.388V4.4H63.5v2.885c0 .884.036 1.425.09 1.623.055.198.182.36.327.469.162.108.362.18.615.18.29 0 .543-.072.76-.234a1.2 1.2 0 0 0 .47-.577c.073-.235.128-.794.128-1.695V4.38h1.665v6.276h-1.557zm4.707 0H69.04V4.382h1.539v.883c.272-.414.507-.703.706-.83.217-.125.453-.197.724-.197.38 0 .742.108 1.086.306l-.507 1.443c-.271-.18-.543-.27-.778-.27s-.435.053-.597.198c-.163.126-.29.36-.38.685-.091.342-.145 1.028-.145 2.11v1.947h.018zm8.888 0h-1.666v-3.21c0-.685-.036-1.118-.108-1.316a.996.996 0 0 0-.344-.469.996.996 0 0 0-.58-.162c-.29 0-.543.072-.778.234-.235.163-.38.36-.47.631-.091.253-.127.74-.127 1.443v2.831h-1.666V4.382h1.54v.92c.542-.704 1.248-1.064 2.08-1.064.363 0 .707.072 1.015.198.307.126.543.306.687.505.163.198.272.433.326.703.055.253.09.631.09 1.118v3.895zm-30.411 6.87c0-.36.09-.703.253-1.028.181-.324.416-.577.742-.757.326-.18.688-.27 1.068-.27.616 0 1.123.198 1.503.595.398.396.597.901.597 1.496 0 .613-.199 1.118-.597 1.515-.399.397-.887.595-1.485.595-.38 0-.724-.09-1.068-.252a1.714 1.714 0 0 1-.778-.74c-.145-.288-.235-.685-.235-1.154zm1.104.054c0 .397.09.704.29.92.199.216.416.325.705.325a.93.93 0 0 0 .706-.325c.181-.216.29-.523.29-.92 0-.396-.09-.703-.29-.92-.199-.216-.416-.324-.706-.324a.93.93 0 0 0-.706.325c-.199.216-.29.523-.29.92zm7.404 2.02h-1.068v-2.056c0-.432-.019-.721-.073-.847a.636.636 0 0 0-.217-.307.671.671 0 0 0-.38-.108c-.181 0-.344.054-.507.144a.822.822 0 0 0-.308.397c-.054.162-.09.469-.09.92v1.82H53.98v-4.038h.995v.595c.362-.451.797-.685 1.34-.685.235 0 .452.036.651.126.2.09.344.198.435.324.108.127.163.289.217.451.036.162.054.415.054.721v2.543h.019zm-15.224 12.64v-8.655h1.756v8.656h-1.756zm9.069 0H49.87V29.05c0-.685-.037-1.118-.11-1.316a.915.915 0 0 0-.343-.47.996.996 0 0 0-.58-.162c-.289 0-.542.073-.778.235-.235.162-.38.36-.47.63-.09.253-.127.74-.127 1.444v2.83h-1.665v-6.275h1.538v.92c.543-.703 1.25-1.064 2.082-1.064.362 0 .706.072 1.014.198.307.127.525.307.688.505.162.199.271.433.325.704.055.252.09.63.09 1.118v3.895zm4.562-6.257v1.317h-1.14v2.524c0 .505.017.812.035.902.018.09.073.162.145.216.073.054.163.09.29.09.145 0 .38-.054.67-.162l.144 1.28c-.38.163-.832.253-1.321.253-.308 0-.58-.054-.815-.144-.235-.109-.416-.235-.525-.397-.108-.162-.18-.379-.235-.65-.036-.198-.054-.576-.054-1.171V27.3h-.76v-1.317h.76V24.74l1.665-.974v2.218h1.14zm4.85 4.274l1.666.27c-.217.614-.543 1.064-1.013 1.389-.453.325-1.032.469-1.72.469-1.086 0-1.9-.36-2.426-1.064-.416-.577-.615-1.298-.615-2.164 0-1.046.271-1.857.814-2.434.543-.595 1.231-.884 2.064-.884.941 0 1.665.307 2.208.92.543.613.797 1.55.779 2.83H58.54c.018.488.145.866.399 1.155.253.27.579.415.959.415.253 0 .47-.072.652-.217.163-.144.307-.378.398-.685zm.091-1.677c-.018-.487-.144-.847-.38-1.1a1.141 1.141 0 0 0-.869-.379c-.362 0-.67.127-.905.397s-.344.631-.344 1.082h2.498zm2.95 3.66v-8.655h1.666v8.656H63.99zm3.223 0v-8.655h1.665v8.656h-1.665zm3.24-7.104v-1.533h1.666v1.533h-1.666zm0 7.105v-6.276h1.666v6.276h-1.666zm3.096.414l1.9.235c.037.216.109.378.218.45.163.127.398.18.742.18.434 0 .76-.071.977-.197a.843.843 0 0 0 .326-.415c.054-.144.073-.397.073-.758v-.92c-.507.668-1.123 1.01-1.883 1.01-.85 0-1.52-.36-2.01-1.063-.38-.56-.579-1.263-.579-2.11 0-1.046.254-1.857.76-2.398a2.44 2.44 0 0 1 1.883-.83c.779 0 1.43.343 1.919 1.028v-.884h1.557v5.626c0 .74-.055 1.299-.181 1.66-.127.36-.29.649-.525.865-.217.216-.525.379-.887.487-.362.126-.833.18-1.394.18-1.068 0-1.828-.18-2.263-.54-.452-.361-.67-.83-.67-1.39.019-.071.019-.126.037-.216zm1.484-3.678c0 .667.127 1.154.38 1.46.254.307.58.47.96.47.398 0 .742-.163 1.031-.47.272-.306.417-.793.417-1.406 0-.65-.127-1.136-.399-1.443a1.317 1.317 0 0 0-1.013-.469c-.398 0-.724.163-.996.47-.253.288-.38.757-.38 1.388zm9.72 1.28l1.666.27c-.217.614-.543 1.064-1.014 1.389-.47.325-1.031.469-1.72.469-1.085 0-1.9-.36-2.425-1.064-.416-.577-.615-1.298-.615-2.164 0-1.046.271-1.857.814-2.434.543-.595 1.231-.884 2.064-.884.941 0 1.665.307 2.208.92.543.613.797 1.55.779 2.83h-4.164c.018.488.145.866.398 1.155.254.27.58.415.96.415.253 0 .47-.072.651-.217.163-.144.308-.378.399-.685zm.091-1.677c-.018-.487-.126-.847-.38-1.1a1.141 1.141 0 0 0-.869-.379c-.362 0-.67.127-.905.397s-.362.631-.344 1.082h2.498zm8.599 3.66h-1.666V29.05c0-.685-.036-1.118-.108-1.316a.915.915 0 0 0-.344-.47.996.996 0 0 0-.58-.162c-.29 0-.543.073-.778.235-.235.162-.38.36-.47.63-.091.253-.127.74-.127 1.444v2.83h-1.666v-6.275h1.539v.92c.543-.703 1.249-1.064 2.082-1.064.362 0 .706.072 1.013.198.308.127.525.307.688.505.163.199.272.433.326.704.054.252.09.63.09 1.118v3.895zm6.878-4.417l-1.647.288c-.054-.324-.181-.577-.38-.74a1.17 1.17 0 0 0-.76-.252c-.417 0-.743.145-.996.433-.253.289-.362.758-.362 1.425 0 .74.127 1.262.38 1.569.254.306.58.45 1.014.45.308 0 .58-.09.778-.27.2-.18.344-.487.435-.92l1.629.27c-.181.74-.489 1.317-.978 1.696-.488.378-1.122.577-1.937.577-.923 0-1.647-.289-2.19-.866-.543-.577-.814-1.37-.814-2.398s.271-1.84.832-2.416c.543-.577 1.285-.866 2.227-.866.76 0 1.375.162 1.828.487.416.36.742.865.941 1.533zm4.906 2.434l1.665.27c-.217.614-.543 1.064-1.013 1.389-.453.325-1.032.469-1.72.469-1.086 0-1.9-.36-2.426-1.064-.416-.577-.615-1.298-.615-2.164 0-1.046.271-1.857.814-2.434.543-.595 1.231-.884 2.064-.884.941 0 1.683.307 2.208.92.543.613.797 1.55.779 2.83h-4.164c.018.488.145.866.399 1.155.253.27.579.415.959.415.253 0 .489-.072.652-.217.163-.144.307-.378.398-.685zm.09-1.677c-.018-.487-.144-.847-.38-1.1a1.141 1.141 0 0 0-.869-.379c-.362 0-.67.127-.905.397s-.344.631-.344 1.082h2.498zM15.586.09H35.46v19.908c0 9.286-5.14 15.075-15.477 15.075H.11V15.147C.109 5.878 5.249.09 15.586.09zm15.102 20.134v-8.73h-4.451v8.73c0 3.39-1.19 4.61-2.38 5.358-1.585 1.02-5.01 1.112-6.235-.692-.487-.693-1.929-2.843 1.513-5.267 4.29-3.044 5.335-7.564 2.65-11.519C18.9 3.876 12.683 4.094 9.493 6.1c-3.01 1.913-4.47 4.92-4.47 9.185v15.017h4.452V15.285c0-3.39 1.208-4.61 2.38-5.358 1.585-1.002 5.01-1.094 6.235.71.487.693 1.929 2.844-1.514 5.268-4.307 3.025-5.335 7.563-2.65 11.518 1.64 2.424 4.38 3.39 7.012 3.39 1.982 0 3.91-.529 5.28-1.404 3.01-1.913 4.47-4.92 4.47-9.185zM28.472 9.271c1.37 0 2.487-1.13 2.505-2.533 0-1.404-1.136-2.534-2.505-2.534-1.388 0-2.506 1.148-2.506 2.534 0 1.403 1.118 2.533 2.506 2.533z" fill="#FFF" fill-rule="nonzero"/></g></svg>
