<svg viewBox="0 0 227 17" xmlns="http://www.w3.org/2000/svg"><g fill="#FFF" fill-rule="evenodd"><path d="M.1 4.4H7v12.1h5V4.4h6.9V.3H.1zM20.9 16.5h17.9v-3.9h-13V10h12.1V6.7H25.8V4.1h12.7V.3H20.9zM40.6 10.8c0 4.7 2.7 5.8 7.1 5.8h8c5 0 5.9-2.1 5.9-4.9v-1.5h-4.9c0 2-.7 2.2-2.9 2.2h-5.3c-2.3 0-2.8-.9-2.8-3.2V7.5c0-2 .5-3.2 3.1-3.2h5.4c1.5 0 2.3.3 2.3 1.5v.4h4.9c0-4.6-.9-6.1-7.9-6.1h-5.8c-4.5 0-7.1 1.1-7.1 5.8v4.9zM63.9 16.5h4.9v-6.1h10.4v6.1h5V.3h-5v5.8H68.8V.3h-4.9zM87 16.5h5V4.8l9.3 11.7h7.7V.3h-5v11.8L94.7.3H87zM111.5 10.8c0 4.7 2.7 5.8 7.1 5.8h7.9c4.5 0 7.1-1.1 7.1-5.8V6c0-4.7-2.7-5.8-7.1-5.8h-7.9c-4.5 0-7.1 1.1-7.1 5.8v4.8zm5.1-3.3c0-2 .5-3.2 3.1-3.2h5.8c2.6 0 3.1 1.2 3.1 3.2v1.7c0 2.3-.5 3.2-2.8 3.2h-6.3c-2.3 0-2.8-.9-2.8-3.2V7.5h-.1zM136.1 16.5h4.9v-4.1h9.8c3.5 0 4.5-2.8 4.5-5.2V5.8c0-3.2-1.1-5.5-5.8-5.5H136v16.2h.1zm5-12.1h7.3c1.5 0 2 .6 2 1.7v.6c0 1-.4 1.7-1.6 1.7h-7.7v-4zM156.9 10.8c0 4.7 2.7 5.8 7.1 5.8h7.9c4.5 0 7.1-1.1 7.1-5.8V6c0-4.7-2.7-5.8-7.1-5.8H164c-4.5 0-7.1 1.1-7.1 5.8v4.8zm5.1-3.3c0-2 .5-3.2 3.1-3.2h5.8c2.6 0 3.1 1.2 3.1 3.2v1.7c0 2.3-.5 3.2-2.8 3.2h-6.3c-2.3 0-2.8-.9-2.8-3.2V7.5h-.1zM181.1 16.5h16.1v-4.2h-11.1V.3h-5zM199.1.3h4.9v16.1h-4.9zM206.1 12.3c0 3.5 1.8 4.3 6.3 4.3h6c6.6 0 8-.7 8-5.1 0-4.7-1.8-5.2-9.5-5.1-5.3 0-5.9 0-5.9-1.4 0-.9.8-1.2 1.9-1.2h5.5c2.3 0 2.4.5 2.4 1.7h4.9V5c0-2.8-.5-4.8-6.2-4.8h-6.9c-6.2 0-6.5 2.3-6.5 5.2 0 4 .8 4.9 8.3 4.9 6.4 0 7 .1 7 1.5 0 1.2-1.1 1.4-2.1 1.4h-6.1c-1.4 0-2.1-.1-2.1-1.8h-4.9v.9h-.1z"/></g></svg>
