<svg viewBox="0 0 48 57" xmlns="http://www.w3.org/2000/svg"><path d="M7.988 10.007h31.93a2 2 0 0 1 2 2v23.018a2 2 0 0 1-2 2H7.988a2 2 0 0 1-2-2V12.007a2 2 0 0 1 2-2zm26.258 34.399c.842.422 1.918-.368 3.228-.368 1.31 0 2.386.778 3.228.332.842-.445 1.263-.973 1.263-1.583s-.421-1.137-1.263-1.583c-.842-.445-1.918-.668-3.228-.668-1.31 0-2.386.223-3.228.668-.842.446-1.264.973-1.264 1.583s.422 1.15 1.264 1.619zm-26.948 0c.842.422 1.918-.368 3.228-.368 1.31 0 2.386.778 3.228.332.842-.445 1.264-.973 1.264-1.583s-.422-1.137-1.264-1.583c-.842-.445-1.918-.668-3.228-.668-1.31 0-2.386.223-3.228.668-.842.446-1.263.973-1.263 1.583s.421 1.15 1.263 1.619zM0 41.943V11.97C0 7.185.062 2.995 4.18 1.4 8.295-.195 16.233.008 24 .008S39.704-.195 43.82 1.4C47.939 2.995 48 7.185 48 11.97v29.973c0 2.627-1.03 4.878-3.088 6.755v5.347c0 .844-.28 1.548-.842 2.11-.561.564-1.263.845-2.105.845h-2.947a3.093 3.093 0 0 1-2.176-.844c-.608-.563-.912-1.267-.912-2.111v-3.096H12.07v3.096c0 .844-.304 1.548-.912 2.11A3.093 3.093 0 0 1 8.982 57H6.035c-.842 0-1.544-.281-2.105-.844-.562-.563-.842-1.267-.842-2.111v-5.347C1.029 46.82 0 44.57 0 41.943z" fill="#FFF" fill-rule="evenodd"/></svg>
