<svg  xmlns="http://www.w3.org/2000/svg" xmlns:xlink="http://www.w3.org/1999/xlink" viewBox="0 0 745.5 275" xml:space="preserve">
<g>
	<g>
		<path fill="#005CB9" d="M163.1,40.5c-57.1,0-85.5,32.1-85.5,83.5v110.5h109.8c57.1,0,85.5-32.1,85.5-83.6V40.5H163.1z"/>
		<g>
			<path fill="#010101" d="M312,99.1v-48h20.4c5.1,0,8.8,0.4,11.2,1.3c2.3,0.9,4.2,2.4,5.6,4.6c1.4,2.2,2.1,4.7,2.1,7.6
				c0,3.6-1.1,6.6-3.2,8.9c-2.1,2.4-5.3,3.8-9.5,4.4c2.1,1.2,3.8,2.6,5.2,4c1.4,1.5,3.2,4.1,5.5,7.8l5.9,9.4h-11.6l-7-10.4
				c-2.5-3.7-4.2-6.1-5.1-7c-0.9-1-1.9-1.6-2.9-2c-1-0.4-2.6-0.5-4.9-0.5h-2v20H312z M321.6,71.4h7.2c4.7,0,7.5-0.2,8.7-0.6
				c1.2-0.4,2.1-1.1,2.7-2c0.7-1,1-2.2,1-3.6c0-1.6-0.4-2.9-1.3-3.9c-0.9-1-2.1-1.6-3.6-1.9c-0.8-0.1-3.1-0.2-7.1-0.2h-7.6V71.4z"/>
			<path fill="#010101" d="M379,88l9.2,1.5c-1.2,3.4-3,5.9-5.6,7.7c-2.5,1.8-5.7,2.6-9.5,2.6c-6,0-10.5-2-13.4-5.9
				c-2.3-3.2-3.4-7.2-3.4-12c0-5.8,1.5-10.3,4.5-13.5c3-3.3,6.8-4.9,11.4-4.9c5.2,0,9.2,1.7,12.2,5.1c3,3.4,4.4,8.7,4.3,15.7h-23
				c0.1,2.7,0.8,4.8,2.2,6.4c1.4,1.5,3.2,2.3,5.3,2.3c1.4,0,2.7-0.4,3.6-1.2C377.7,91,378.5,89.8,379,88z M379.5,78.7
				c-0.1-2.7-0.8-4.7-2.1-6.1c-1.3-1.4-2.9-2.1-4.8-2.1c-2,0-3.7,0.7-5,2.2c-1.3,1.5-2,3.4-1.9,6H379.5z"/>
			<path fill="#010101" d="M412.3,64.3v7.3h-6.3v14c0,2.8,0.1,4.5,0.2,5c0.1,0.5,0.4,0.9,0.8,1.2c0.4,0.3,0.9,0.5,1.6,0.5
				c0.8,0,2.1-0.3,3.7-0.9l0.8,7.1c-2.1,0.9-4.6,1.4-7.3,1.4c-1.7,0-3.2-0.3-4.5-0.8c-1.3-0.6-2.3-1.3-2.9-2.2
				c-0.6-0.9-1-2.1-1.3-3.6c-0.2-1.1-0.3-3.2-0.3-6.5V71.6h-4.2v-7.3h4.2v-6.9l9.2-5.4v12.3H412.3z"/>
			<path fill="#010101" d="M441.6,99.1v-5.2c-1.3,1.9-2.9,3.3-5,4.4c-2.1,1.1-4.2,1.6-6.5,1.6c-2.3,0-4.4-0.5-6.3-1.5
				c-1.8-1-3.2-2.5-4-4.3c-0.8-1.9-1.2-4.4-1.2-7.7v-22h9.2v16c0,4.9,0.2,7.9,0.5,9c0.3,1.1,1,2,1.8,2.6c0.9,0.6,2,1,3.4,1
				c1.6,0,3-0.4,4.2-1.3c1.3-0.9,2.1-1.9,2.6-3.2c0.4-1.3,0.7-4.4,0.7-9.4V64.3h9.2v34.8H441.6z"/>
			<path fill="#010101" d="M467.6,99.1h-9.2V64.3h8.5v4.9c1.5-2.3,2.8-3.9,3.9-4.6c1.2-0.7,2.5-1.1,4-1.1c2.1,0,4.1,0.6,6,1.7l-2.8,8
				c-1.5-1-3-1.5-4.3-1.5c-1.3,0-2.4,0.3-3.3,1.1c-0.9,0.7-1.6,2-2.1,3.8c-0.5,1.9-0.8,5.7-0.8,11.7V99.1z"/>
			<path fill="#010101" d="M516.7,99.1h-9.2V81.3c0-3.8-0.2-6.2-0.6-7.3c-0.4-1.1-1-1.9-1.9-2.6c-0.9-0.6-1.9-0.9-3.2-0.9
				c-1.6,0-3,0.4-4.3,1.3c-1.3,0.9-2.1,2-2.6,3.5c-0.5,1.4-0.7,4.1-0.7,8v15.7H485V64.3h8.5v5.1c3-3.9,6.9-5.9,11.5-5.9
				c2,0,3.9,0.4,5.6,1.1c1.7,0.7,3,1.7,3.8,2.8c0.9,1.1,1.5,2.4,1.8,3.9c0.3,1.4,0.5,3.5,0.5,6.2V99.1z"/>
			<path fill="#010101" d="M348.7,137.2c0-2,0.5-3.9,1.4-5.7c1-1.8,2.3-3.2,4.1-4.2c1.8-1,3.8-1.5,5.9-1.5c3.4,0,6.2,1.1,8.3,3.3
				c2.2,2.2,3.3,5,3.3,8.3c0,3.4-1.1,6.2-3.3,8.4c-2.2,2.2-4.9,3.3-8.2,3.3c-2.1,0-4-0.5-5.9-1.4c-1.9-0.9-3.3-2.3-4.3-4.1
				C349.2,142,348.7,139.8,348.7,137.2z M354.8,137.5c0,2.2,0.5,3.9,1.6,5.1c1.1,1.2,2.3,1.8,3.9,1.8c1.5,0,2.8-0.6,3.9-1.8
				c1-1.2,1.6-2.9,1.6-5.1c0-2.2-0.5-3.9-1.6-5.1c-1.1-1.2-2.3-1.8-3.9-1.8c-1.5,0-2.8,0.6-3.9,1.8
				C355.3,133.6,354.8,135.3,354.8,137.5z"/>
			<path fill="#010101" d="M395.7,148.7h-5.9v-11.4c0-2.4-0.1-4-0.4-4.7c-0.2-0.7-0.7-1.3-1.2-1.7c-0.6-0.4-1.3-0.6-2.1-0.6
				c-1,0-1.9,0.3-2.8,0.8c-0.8,0.6-1.4,1.3-1.7,2.2c-0.3,0.9-0.5,2.6-0.5,5.1v10.1h-5.9v-22.4h5.5v3.3c2-2.5,4.4-3.8,7.4-3.8
				c1.3,0,2.5,0.2,3.6,0.7c1.1,0.5,1.9,1.1,2.4,1.8c0.6,0.7,0.9,1.6,1.2,2.5c0.2,0.9,0.3,2.3,0.3,4V148.7z"/>
			<path fill="#010101" d="M311.6,218.8v-48h9.7v48H311.6z"/>
			<path fill="#010101" d="M361.7,218.8h-9.2v-17.7c0-3.8-0.2-6.2-0.6-7.3c-0.4-1.1-1-2-1.9-2.6c-0.9-0.6-1.9-0.9-3.2-0.9
				c-1.6,0-3,0.4-4.3,1.3c-1.3,0.9-2.1,2-2.6,3.5c-0.5,1.4-0.7,4.1-0.7,8v15.7H330v-34.8h8.5v5.1c3-3.9,6.9-5.9,11.5-5.9
				c2,0,3.9,0.4,5.6,1.1c1.7,0.7,2.9,1.7,3.8,2.8c0.9,1.1,1.5,2.4,1.8,3.9c0.3,1.4,0.5,3.5,0.5,6.2V218.8z"/>
			<path fill="#010101" d="M386.9,184.1v7.3h-6.3v14c0,2.8,0.1,4.5,0.2,5c0.1,0.5,0.4,0.9,0.8,1.2c0.4,0.3,0.9,0.5,1.6,0.5
				c0.8,0,2.1-0.3,3.7-0.9l0.8,7.1c-2.1,0.9-4.6,1.4-7.3,1.4c-1.7,0-3.2-0.3-4.5-0.8c-1.3-0.6-2.3-1.3-2.9-2.2
				c-0.6-0.9-1-2.1-1.3-3.6c-0.2-1.1-0.3-3.2-0.3-6.5v-15.2h-4.2v-7.3h4.2v-6.9l9.2-5.4v12.3H386.9z"/>
			<path fill="#010101" d="M413.7,207.8l9.2,1.5c-1.2,3.4-3,5.9-5.6,7.7c-2.5,1.8-5.7,2.6-9.5,2.6c-6,0-10.5-2-13.4-5.9
				c-2.3-3.2-3.4-7.2-3.4-12c0-5.8,1.5-10.3,4.5-13.5c3-3.3,6.8-4.9,11.4-4.9c5.2,0,9.2,1.7,12.2,5.1c3,3.4,4.4,8.6,4.3,15.7h-23
				c0.1,2.7,0.8,4.8,2.2,6.4c1.4,1.5,3.2,2.3,5.3,2.3c1.4,0,2.6-0.4,3.6-1.2C412.4,210.8,413.2,209.5,413.7,207.8z M414.2,198.5
				c-0.1-2.7-0.8-4.7-2.1-6.1c-1.3-1.4-2.9-2.1-4.8-2.1c-2,0-3.7,0.7-5,2.2c-1.3,1.5-1.9,3.5-1.9,6H414.2z"/>
			<path fill="#010101" d="M430.5,218.8v-48h9.2v48H430.5z"/>
			<path fill="#010101" d="M448.3,218.8v-48h9.2v48H448.3z"/>
			<path fill="#010101" d="M466.2,179.4v-8.5h9.2v8.5H466.2z M466.2,218.8v-34.8h9.2v34.8H466.2z"/>
			<path fill="#010101" d="M483.3,221.1l10.5,1.3c0.2,1.2,0.6,2.1,1.2,2.5c0.9,0.7,2.2,1,4.1,1c2.4,0,4.2-0.4,5.4-1.1
				c0.8-0.5,1.4-1.3,1.8-2.3c0.3-0.8,0.4-2.2,0.4-4.2v-5.1c-2.8,3.7-6.2,5.6-10.4,5.6c-4.7,0-8.4-2-11.1-5.9
				c-2.1-3.1-3.2-7-3.2-11.7c0-5.8,1.4-10.3,4.2-13.3c2.8-3.1,6.3-4.6,10.4-4.6c4.3,0,7.9,1.9,10.6,5.7v-4.9h8.6v31.2
				c0,4.1-0.3,7.2-1,9.2c-0.7,2-1.6,3.6-2.9,4.8c-1.2,1.2-2.9,2.1-4.9,2.7c-2,0.7-4.6,1-7.7,1c-5.9,0-10.1-1-12.5-3
				c-2.5-2-3.7-4.6-3.7-7.7C483.2,221.9,483.2,221.6,483.3,221.1z M491.5,200.7c0,3.7,0.7,6.4,2.1,8.1c1.4,1.7,3.2,2.6,5.3,2.6
				c2.2,0,4.1-0.9,5.7-2.6c1.5-1.7,2.3-4.4,2.3-7.8c0-3.6-0.7-6.3-2.2-8c-1.5-1.7-3.4-2.6-5.6-2.6c-2.2,0-4,0.9-5.5,2.6
				C492.2,194.6,491.5,197.2,491.5,200.7z"/>
			<path fill="#010101" d="M545.2,207.8l9.2,1.5c-1.2,3.4-3,5.9-5.6,7.7c-2.6,1.8-5.7,2.6-9.5,2.6c-6,0-10.5-2-13.4-5.9
				c-2.3-3.2-3.4-7.2-3.4-12c0-5.8,1.5-10.3,4.5-13.5c3-3.3,6.8-4.9,11.4-4.9c5.2,0,9.2,1.7,12.2,5.1c3,3.4,4.4,8.6,4.3,15.7h-23
				c0.1,2.7,0.8,4.8,2.2,6.4c1.4,1.5,3.2,2.3,5.3,2.3c1.4,0,2.6-0.4,3.6-1.2C543.9,210.8,544.7,209.5,545.2,207.8z M545.7,198.5
				c-0.1-2.7-0.7-4.7-2.1-6.1c-1.3-1.4-2.9-2.1-4.8-2.1c-2,0-3.7,0.7-5,2.2c-1.3,1.5-2,3.5-1.9,6H545.7z"/>
			<path fill="#010101" d="M593.2,218.8H584v-17.7c0-3.8-0.2-6.2-0.6-7.3c-0.4-1.1-1-2-1.9-2.6c-0.9-0.6-1.9-0.9-3.2-0.9
				c-1.6,0-3,0.4-4.3,1.3c-1.3,0.9-2.1,2-2.6,3.5c-0.5,1.4-0.7,4.1-0.7,8v15.7h-9.2v-34.8h8.5v5.1c3-3.9,6.9-5.9,11.5-5.9
				c2,0,3.9,0.4,5.6,1.1c1.7,0.7,2.9,1.7,3.8,2.8c0.9,1.1,1.5,2.4,1.8,3.9c0.3,1.4,0.5,3.5,0.5,6.2V218.8z"/>
			<path fill="#010101" d="M631.2,194.3l-9.1,1.6c-0.3-1.8-1-3.2-2.1-4.1c-1.1-0.9-2.5-1.4-4.2-1.4c-2.3,0-4.1,0.8-5.5,2.4
				c-1.4,1.6-2,4.2-2,7.9c0,4.1,0.7,7,2.1,8.7c1.4,1.7,3.2,2.5,5.6,2.5c1.7,0,3.2-0.5,4.3-1.5c1.1-1,1.9-2.7,2.4-5.1l9,1.5
				c-1,4.1-2.7,7.3-5.4,9.4c-2.7,2.1-6.2,3.2-10.7,3.2c-5.1,0-9.1-1.6-12.1-4.8c-3-3.2-4.5-7.6-4.5-13.3c0-5.7,1.5-10.2,4.6-13.4
				c3-3.2,7.1-4.8,12.3-4.8c4.2,0,7.6,0.9,10.1,2.7C628.3,187.8,630.1,190.6,631.2,194.3z"/>
			<path fill="#010101" d="M658.3,207.8l9.2,1.5c-1.2,3.4-3,5.9-5.6,7.7c-2.5,1.8-5.7,2.6-9.5,2.6c-6,0-10.5-2-13.4-5.9
				c-2.3-3.2-3.4-7.2-3.4-12c0-5.8,1.5-10.3,4.5-13.5c3-3.3,6.8-4.9,11.4-4.9c5.2,0,9.3,1.7,12.2,5.1c3,3.4,4.4,8.6,4.3,15.7h-23
				c0.1,2.7,0.8,4.8,2.2,6.4c1.4,1.5,3.2,2.3,5.3,2.3c1.4,0,2.7-0.4,3.6-1.2C657,210.8,657.8,209.5,658.3,207.8z M658.8,198.5
				c-0.1-2.7-0.8-4.7-2.1-6.1c-1.3-1.4-2.9-2.1-4.8-2.1c-2,0-3.7,0.7-5,2.2c-1.3,1.5-1.9,3.5-1.9,6H658.8z"/>
		</g>
	</g>
	<g>
		<path fill="#FFFFFF" d="M246.4,152c0,23.4-8.1,39.9-24.8,50.4c-7.6,4.8-18.3,7.7-29.3,7.7c-14.6,0-29.8-5.3-38.9-18.6
			c-14.9-21.7-9.2-46.6,14.7-63.2c19.1-13.3,11.1-25.1,8.4-28.9c-6.8-9.9-25.8-9.4-34.6-3.9c-6.5,4.1-13.2,10.8-13.2,29.4v82.4H104
			v-82.4c0-23.4,8.1-39.9,24.8-50.4C146.5,63.5,181,62.3,197,85.5c14.9,21.7,9.1,46.5-14.7,63.2c-19.1,13.3-11.1,25.1-8.4,28.9
			c6.8,9.9,25.8,9.4,34.6,3.8c6.6-4.1,13.2-10.8,13.2-29.4v-47.9h24.7V152z"/>
		<path fill="#FFFFFF" d="M234.1,91.9c-7.7,0-13.9-6.2-13.9-13.9c0-7.6,6.2-13.9,13.9-13.9c7.6,0,13.9,6.2,13.9,13.9
			C247.9,85.7,241.7,91.9,234.1,91.9z"/>
	</g>
</g>
</svg>
