<svg id="Layer_1" xmlns="http://www.w3.org/2000/svg" viewBox="0 0 242.5 32"><path class="st0" d="M8.1 14.4H15v12.1h5V14.4h6.9v-4.1H8.1zM28.9 26.5h17.9v-3.9h-13V20h12.1v-3.3H33.8v-2.6h12.7v-3.8H28.9zM48.6 20.8c0 4.7 2.7 5.8 7.1 5.8h8c5 0 5.9-2.1 5.9-4.9v-1.5h-4.9c0 2-.7 2.2-2.9 2.2h-5.3c-2.3 0-2.8-.9-2.8-3.2v-1.7c0-2 .5-3.2 3.1-3.2h5.4c1.5 0 2.3.3 2.3 1.5v.4h4.9c0-4.6-.9-6.1-7.9-6.1h-5.8c-4.5 0-7.1 1.1-7.1 5.8v4.9zM71.9 26.5h4.9v-6.1h10.4v6.1h5V10.3h-5v5.8H76.8v-5.8h-4.9zM95 26.5h5V14.8l9.3 11.7h7.7V10.3h-5v11.8l-9.3-11.8H95zM119.5 20.8c0 4.7 2.7 5.8 7.1 5.8h7.9c4.5 0 7.1-1.1 7.1-5.8V16c0-4.7-2.7-5.8-7.1-5.8h-7.9c-4.5 0-7.1 1.1-7.1 5.8v4.8zm5.1-3.3c0-2 .5-3.2 3.1-3.2h5.8c2.6 0 3.1 1.2 3.1 3.2v1.7c0 2.3-.5 3.2-2.8 3.2h-6.3c-2.3 0-2.8-.9-2.8-3.2v-1.7zM144.1 26.5h4.9v-4.1h9.8c3.5 0 4.5-2.8 4.5-5.2v-1.4c0-3.2-1.1-5.5-5.8-5.5H144v16.2zm5-12.1h7.3c1.5 0 2 .6 2 1.7v.6c0 1-.4 1.7-1.6 1.7h-7.7v-4zM164.9 20.8c0 4.7 2.7 5.8 7.1 5.8h7.9c4.5 0 7.1-1.1 7.1-5.8V16c0-4.7-2.7-5.8-7.1-5.8H172c-4.5 0-7.1 1.1-7.1 5.8v4.8zm5.1-3.3c0-2 .5-3.2 3.1-3.2h5.8c2.6 0 3.1 1.2 3.1 3.2v1.7c0 2.3-.5 3.2-2.8 3.2h-6.3c-2.3 0-2.8-.9-2.8-3.2v-1.7zM189.1 26.5h16.1v-4.2h-11.1v-12h-5zM207.1 10.3h4.9v16.1h-4.9zM214.1 22.3c0 3.5 1.8 4.3 6.3 4.3h6c6.6 0 8-.7 8-5.1 0-4.7-1.8-5.2-9.5-5.1-5.3 0-5.9 0-5.9-1.4 0-.9.8-1.2 1.9-1.2h5.5c2.3 0 2.4.5 2.4 1.7h4.9V15c0-2.8-.5-4.8-6.2-4.8h-6.9c-6.2 0-6.5 2.3-6.5 5.2 0 4 .8 4.9 8.3 4.9 6.4 0 7 .1 7 1.5 0 1.2-1.1 1.4-2.1 1.4h-6.1c-1.4 0-2.1-.1-2.1-1.8h-4.9v.9z"/><g><path class="st1" d="M261.1 14.4h6.9v12.1h5V14.4h6.9v-4.1h-18.8zM281.9 26.5h17.9v-3.9h-13V20h12.1v-3.3h-12.1v-2.6h12.7v-3.8h-17.6zM301.6 20.8c0 4.7 2.7 5.8 7.1 5.8h8c5 0 5.9-2.1 5.9-4.9v-1.5h-4.9c0 2-.7 2.2-2.9 2.2h-5.3c-2.3 0-2.8-.9-2.8-3.2v-1.7c0-2 .5-3.2 3.1-3.2h5.4c1.5 0 2.3.3 2.3 1.5v.4h4.9c0-4.6-.9-6.1-7.9-6.1h-5.8c-4.5 0-7.1 1.1-7.1 5.8v4.9zM324.9 26.5h4.9v-6.1h10.4v6.1h5V10.3h-5v5.8h-10.4v-5.8h-4.9zM348 26.5h5V14.8l9.3 11.7h7.7V10.3h-5v11.8l-9.3-11.8H348zM372.5 20.8c0 4.7 2.7 5.8 7.1 5.8h7.9c4.5 0 7.1-1.1 7.1-5.8V16c0-4.7-2.7-5.8-7.1-5.8h-7.9c-4.5 0-7.1 1.1-7.1 5.8v4.8zm5.1-3.3c0-2 .5-3.2 3.1-3.2h5.8c2.6 0 3.1 1.2 3.1 3.2v1.7c0 2.3-.5 3.2-2.8 3.2h-6.3c-2.3 0-2.8-.9-2.8-3.2v-1.7zM397.1 26.5h4.9v-4.1h9.8c3.5 0 4.5-2.8 4.5-5.2v-1.4c0-3.2-1.1-5.5-5.8-5.5H397v16.2zm5-12.1h7.3c1.5 0 2 .6 2 1.7v.6c0 1-.4 1.7-1.6 1.7h-7.7v-4zM417.9 20.8c0 4.7 2.7 5.8 7.1 5.8h7.9c4.5 0 7.1-1.1 7.1-5.8V16c0-4.7-2.7-5.8-7.1-5.8H425c-4.5 0-7.1 1.1-7.1 5.8v4.8zm5.1-3.3c0-2 .5-3.2 3.1-3.2h5.8c2.6 0 3.1 1.2 3.1 3.2v1.7c0 2.3-.5 3.2-2.8 3.2h-6.3c-2.3 0-2.8-.9-2.8-3.2v-1.7zM442.1 26.5h16.1v-4.2h-11.1v-12h-5zM460.1 10.3h4.9v16.1h-4.9zM467.1 22.3c0 3.5 1.8 4.3 6.3 4.3h6c6.6 0 8-.7 8-5.1 0-4.7-1.8-5.2-9.5-5.1-5.3 0-5.9 0-5.9-1.4 0-.9.8-1.2 1.9-1.2h5.5c2.3 0 2.4.5 2.4 1.7h4.9V15c0-2.8-.5-4.8-6.2-4.8h-6.9c-6.2 0-6.5 2.3-6.5 5.2 0 4 .8 4.9 8.3 4.9 6.4 0 7 .1 7 1.5 0 1.2-1.1 1.4-2.1 1.4h-6.1c-1.4 0-2.1-.1-2.1-1.8h-4.9v.9z"/></g></svg>
