<svg viewBox="0 0 17 16" xmlns="http://www.w3.org/2000/svg"><path d="M4.487.578c.292.406.612.87.961 1.39.35.522.727 1.1 1.133 1.735a.906.906 0 0 1 .133.563 1.63 1.63 0 0 1-.227.671c-.052.105-.14.271-.265.5l-.485.891c.22.313.498.662.836 1.047.339.385.732.802 1.18 1.25.458.458.878.857 1.258 1.195.38.339.721.617 1.023.836.354-.208.649-.377.883-.508.234-.13.404-.22.508-.273.125-.073.252-.128.383-.164.13-.037.252-.055.367-.055a.947.947 0 0 1 .484.125c.469.282.964.597 1.485.946a94.3 94.3 0 0 1 1.671 1.148.813.813 0 0 1 .25.281c.063.115.105.24.125.375.01.146-.005.295-.046.446a1.607 1.607 0 0 1-.22.46 2.174 2.174 0 0 1-.187.266 17.2 17.2 0 0 1-.297.36c-.104.135-.24.289-.406.46-.166.172-.364.362-.594.57-.218.21-.419.365-.601.47-.182.104-.341.156-.477.156h-.03a5.682 5.682 0 0 1-1.704-.352 10.628 10.628 0 0 1-1.875-.914A17.322 17.322 0 0 1 7.69 12.97a34.638 34.638 0 0 1-2.25-2.047 30.86 30.86 0 0 1-2.054-2.25A18.588 18.588 0 0 1 1.9 6.609a9.848 9.848 0 0 1-.914-1.882A5.877 5.877 0 0 1 .644 3.03c0-.146.052-.31.156-.492.104-.182.26-.388.469-.617a13 13 0 0 1 .562-.586c.167-.162.318-.294.453-.399.125-.093.245-.182.36-.265.114-.083.213-.156.296-.219.115-.083.235-.143.36-.18.125-.036.26-.054.406-.054.167 0 .315.028.445.086.13.057.243.148.336.273zm-1 .64a7.412 7.412 0 0 0-.609.477c-.198.172-.39.352-.578.54a6.416 6.416 0 0 0-.445.484c-.11.135-.18.25-.211.344.02.468.13.968.328 1.5.198.53.484 1.096.86 1.695.374.599.838 1.229 1.39 1.89a31.741 31.741 0 0 0 1.922 2.086c.729.73 1.424 1.37 2.086 1.922a17.361 17.361 0 0 0 1.89 1.39 9.333 9.333 0 0 0 1.703.86c.537.198 1.04.313 1.508.344.073-.031.177-.104.313-.219.135-.114.296-.265.484-.453.187-.187.365-.383.531-.586.167-.203.328-.409.485-.617a.37.37 0 0 0 .062-.117.169.169 0 0 0 0-.102 63.305 63.305 0 0 0-1.664-1.14c-.505-.334-.96-.63-1.367-.891a.495.495 0 0 0-.14.023 1.09 1.09 0 0 0-.173.07c-.083.053-.24.141-.468.266l-.891.485-.516.312-.515-.344c-.334-.229-.7-.523-1.102-.882-.4-.36-.841-.779-1.32-1.258-.469-.48-.88-.92-1.235-1.32a11.783 11.783 0 0 1-.875-1.102l-.375-.484.313-.547a89.647 89.647 0 0 1 .75-1.36 1.09 1.09 0 0 0 .07-.171.495.495 0 0 0 .024-.141c-.365-.573-.711-1.11-1.04-1.61a72.14 72.14 0 0 0-.945-1.406h-.03a.425.425 0 0 0-.118.016.36.36 0 0 0-.102.047z" fill-rule="evenodd"/></svg>
