<svg viewBox="0 0 25 25" xmlns="http://www.w3.org/2000/svg"><path d="M24.186 4.86c.125.14.188.304.188.492 0 .187-.063.359-.188.515l-2.344 2.625a.747.747 0 0 1-.563.258h-8.202v1.5H19.1c.203 0 .38.07.528.21a.71.71 0 0 1 .222.54v5.25a.71.71 0 0 1-.222.54.741.741 0 0 1-.528.21h-6.023v6.797a.658.658 0 0 1-.223.492.741.741 0 0 1-.527.211.741.741 0 0 1-.528-.21.658.658 0 0 1-.222-.493V17H3.42a1.07 1.07 0 0 1-.316-.047.492.492 0 0 1-.246-.164L.514 14.141a.718.718 0 0 1-.187-.493c0-.187.062-.351.187-.492l2.344-2.672a.57.57 0 0 1 .246-.175.874.874 0 0 1 .316-.059h8.157v-1.5h-6a.72.72 0 0 1-.528-.223A.72.72 0 0 1 4.827 8V2.75a.72.72 0 0 1 .222-.527A.72.72 0 0 1 5.577 2h6v-.797c0-.187.074-.351.222-.492A.741.741 0 0 1 12.327.5c.203 0 .379.07.527.21.149.142.223.306.223.493V2h8.203a.747.747 0 0 1 .562.258l2.344 2.601zM18.35 15.5v-3.75H3.75l-1.664 1.898L3.749 15.5H18.35zm2.602-8.25l1.664-1.898L20.952 3.5H6.327v3.75h14.625z" fill-rule="evenodd"/></svg>
