<svg xmlns="http://www.w3.org/2000/svg">
  <symbol viewBox="0 0 1792 1792" id="icon-arrow-right">
    <title>arrow-right</title>
    <path d="M1171 960q0 13-10 23l-466 466q-10 10-23 10t-23-10l-50-50q-10-10-10-23t10-23l393-393-393-393q-10-10-10-23t10-23l50-50q10-10 23-10t23 10l466 466q10 10 10 23z" />
  </symbol>
  <symbol viewBox="0 0 41 25" id="icon-bag">
    <title>bag</title>
    <path d="M14.379 6.07c.117.118.175.26.175.43 0 .17-.058.312-.175.43l-3.496 3.75a.654.654 0 0 1-.469.195H7.199v12.79a.548.548 0 0 1-.186.41.617.617 0 0 1-.439.175.617.617 0 0 1-.44-.176.548.548 0 0 1-.185-.41V10.875H1.054a.6.6 0 0 1-.439-.186.6.6 0 0 1-.186-.439v-7.5a.6.6 0 0 1 .186-.44.6.6 0 0 1 .44-.185h4.894l.02-1.29c0-.155.055-.292.166-.41a.553.553 0 0 1 .42-.175c.169 0 .315.059.439.176a.548.548 0 0 1 .185.41l.02 1.289h3.215a.654.654 0 0 1 .469.195l3.496 3.75zm11.45 15.919v1.042c0 .54-.195 1.004-.586 1.39-.391.386-.875.579-1.45.579h-2.06a1.995 1.995 0 0 1-1.438-.58c-.399-.385-.599-.848-.599-1.389V21.99h-.163c-.43 0-.794-.147-1.09-.44A1.42 1.42 0 0 1 18 20.506V1.482c0-.417.148-.768.443-1.053A1.508 1.508 0 0 1 19.533 0h19.934c.43 0 .794.143 1.09.429.295.285.443.636.443 1.053v19.024c0 .402-.148.75-.443 1.043-.296.293-.66.44-1.09.44h-.348v1.042c0 .54-.196 1.004-.587 1.39-.392.386-.875.579-1.45.579h-2.06a1.995 1.995 0 0 1-1.438-.58c-.399-.385-.599-.848-.599-1.389V21.99H25.83zm-4.6 0v.84a.83.83 0 0 0 .145.476c.095.142.215.213.359.213h2.06c.144 0 .264-.071.36-.213a.83.83 0 0 0 .143-.476v-.84H21.23zm13.29 0v.84a.83.83 0 0 0 .143.476c.096.142.216.213.36.213h2.06c.144 0 .264-.071.36-.213a.83.83 0 0 0 .143-.476v-.84H34.52zM10.14 9.625H1.68v-6.25h8.46L13.07 6.5l-2.93 3.125zm9.393 6.175h19.934v4.706H19.533V15.8zm0-1.8V1.482h19.934V14H19.533zm18.265 3.318a.75.75 0 0 1 .54.22.7.7 0 0 1 .227.521.7.7 0 0 1-.227.521.75.75 0 0 1-.54.22h-3.066a.75.75 0 0 1-.54-.22.7.7 0 0 1-.227-.521.7.7 0 0 1 .228-.521.75.75 0 0 1 .539-.22h3.066zm-13.288 0a.75.75 0 0 1 .539.22.7.7 0 0 1 .227.521.7.7 0 0 1-.227.521.75.75 0 0 1-.54.22h-3.066a.75.75 0 0 1-.54-.22.7.7 0 0 1-.227-.521.7.7 0 0 1 .228-.521.75.75 0 0 1 .539-.22h3.067z"
    fill-rule="evenodd" />
  </symbol>
  <symbol viewBox="0 0 88 80" id="icon-bus-sleep">
    <title>bus-sleep</title>
    <g fill="#9B9B9B" fill-rule="evenodd">
      <path d="M7.988 33.007h31.93a2 2 0 0 1 2 2v23.018a2 2 0 0 1-2 2H7.988a2 2 0 0 1-2-2V35.007a2 2 0 0 1 2-2zM40.702 63.66c-.842-.422-1.918.367-3.228.367-1.31 0-2.386-.777-3.228-.332-.842.446-1.264.973-1.264 1.583s.422 1.138 1.264 1.583c.842.446 1.918.669 3.228.669 1.31 0 2.386-.223 3.228-.669.842-.445 1.263-.973 1.263-1.583s-.421-1.149-1.263-1.618zm-26.948 0c-.842-.422-1.918.367-3.228.367-1.31 0-2.386-.777-3.228-.332-.842.446-1.263.973-1.263 1.583s.421 1.138 1.263 1.583c.842.446 1.918.669 3.228.669 1.31 0 2.386-.223 3.228-.669.842-.445 1.264-.973 1.264-1.583s-.422-1.149-1.264-1.618zM0 64.943V34.97c0-4.785.062-8.975 4.18-10.57 4.116-1.595 12.054-1.392 19.82-1.392s15.704-.203 19.82 1.392C47.939 25.995 48 30.185 48 34.97v29.973c0 2.627-1.03 4.878-3.088 6.755v5.347c0 .844-.28 1.548-.842 2.11-.561.564-1.263.845-2.105.845h-2.947a3.093 3.093 0 0 1-2.176-.844c-.608-.563-.912-1.267-.912-2.111v-3.096H12.07v3.096c0 .844-.304 1.548-.912 2.11A3.093 3.093 0 0 1 8.982 80H6.035c-.842 0-1.544-.281-2.105-.844-.562-.563-.842-1.267-.842-2.111v-5.347C1.029 69.82 0 67.57 0 64.943zM54.087 17v-1.212l4.973-6.176v-.14h-4.94V7.96h7.073v1.304l-4.864 6.084v.141h4.914V17h-7.156zm9.003 0v-1.336l6.508-8.808v-.14H63.29V5.021h8.64v1.336l-6.474 8.808v.14h6.633V17H63.09zm11.403 0v-1.887L83.68 2.68v-.2h-8.906V.09h12.2v1.887L77.832 14.41v.2h9.363V17H74.493z"
      />
    </g>
  </symbol>
  <symbol viewBox="0 0 15 16" id="icon-bus">
    <title>bus</title>
    <path d="M5.011 14.073v.667c0 .346-.125.642-.376.89-.25.246-.56.37-.927.37H2.389c-.358 0-.664-.124-.92-.37a1.193 1.193 0 0 1-.383-.89v-.667H.98a.952.952 0 0 1-.697-.282.909.909 0 0 1-.284-.667V.95C0 .682.095.457.284.274A.965.965 0 0 1 .98 0H13.74c.276 0 .508.091.697.274.19.183.284.408.284.675v12.175c0 .257-.095.48-.284.667a.952.952 0 0 1-.697.282h-.223v.667c0 .346-.125.642-.376.89-.25.246-.56.37-.927.37h-1.319c-.358 0-.664-.124-.92-.37a1.193 1.193 0 0 1-.383-.89v-.667H5.01zm-2.944 0v.538c0 .112.03.213.092.304.061.09.138.136.23.136h1.319c.092 0 .168-.045.23-.136a.532.532 0 0 0 .092-.304v-.538H2.067zm8.505 0v.538c0 .112.03.213.092.304.061.09.138.136.23.136h1.319c.092 0 .168-.045.23-.136a.532.532 0 0 0 .092-.304v-.538h-1.963zm-9.59-3.961h12.757v3.012H.98v-3.012zm0-1.152V.949h12.757V8.96H.98zm11.689 2.123a.48.48 0 0 1 .345.141.449.449 0 0 1 .146.334c0 .128-.049.24-.146.333a.48.48 0 0 1-.345.141h-1.963a.48.48 0 0 1-.345-.14.449.449 0 0 1-.145-.334c0-.129.048-.24.145-.334a.48.48 0 0 1 .345-.14h1.963zm-8.505 0a.48.48 0 0 1 .345.141.449.449 0 0 1 .146.334c0 .128-.049.24-.146.333a.48.48 0 0 1-.345.141H2.203a.48.48 0 0 1-.345-.14.449.449 0 0 1-.145-.334c0-.129.048-.24.145-.334a.48.48 0 0 1 .345-.14h1.963z"
    fill-rule="evenodd" />
  </symbol>
  <symbol viewBox="0 0 24 24" id="icon-clock">
    <title>clock</title>
    <path d="M12 0c-1.656 0-3.215.312-4.676.938a12.042 12.042 0 0 0-3.82 2.566 12.042 12.042 0 0 0-2.567 3.82A11.762 11.762 0 0 0 0 12c0 1.656.312 3.215.938 4.676a12.042 12.042 0 0 0 2.566 3.82 12.042 12.042 0 0 0 3.82 2.567c1.461.625 3.02.937 4.676.937 1.656 0 3.215-.312 4.676-.938a12.042 12.042 0 0 0 3.82-2.566 12.042 12.042 0 0 0 2.567-3.82c.625-1.461.937-3.02.937-4.676 0-1.656-.312-3.215-.938-4.676a12.042 12.042 0 0 0-2.566-3.82 12.042 12.042 0 0 0-3.82-2.567A11.762 11.762 0 0 0 12 0zm.68 12.314l.003.005a.838.838 0 0 1-.276.165c-.094.04-.578.03-.589.042H6.813a.68.68 0 0 1-.538-.207.68.68 0 0 1-.207-.539c0-.199.074-.373.223-.522a.715.715 0 0 1 .522-.224h4.437V4.5a.72.72 0 0 1 .223-.527A.72.72 0 0 1 12 3.75a.72.72 0 0 1 .527.223.72.72 0 0 1 .223.527V12c0 .11-.02.21-.059.305-.001.004-.005.007-.011.009zM12 22.524c1.453 0 2.816-.278 4.09-.833a10.597 10.597 0 0 0 3.328-2.261 10.842 10.842 0 0 0 2.25-3.34c.555-1.274.832-2.637.832-4.09 0-1.453-.277-2.816-.832-4.09a10.697 10.697 0 0 0-2.25-3.328 10.697 10.697 0 0 0-3.328-2.25A10.129 10.129 0 0 0 12 1.5c-1.453 0-2.816.277-4.09.832a10.697 10.697 0 0 0-3.328 2.25 10.697 10.697 0 0 0-2.25 3.328A10.129 10.129 0 0 0 1.5 12c0 1.453.277 2.816.832 4.09a10.842 10.842 0 0 0 2.25 3.34A10.597 10.597 0 0 0 7.91 21.69c1.274.555 2.637.832 4.09.832z"
    fill-rule="evenodd" />
  </symbol>
  <symbol viewBox="0 0 1024 1024" id="icon-close">
    <title>close</title>
    <path d="M1015.468 81.068l-68.267-68.267-435.2 435.2-435.2-435.2L8.534 81.068l435.2 426.667-435.2 435.2 68.267 68.267 435.2-435.2 435.2 435.2 68.267-68.267-435.2-435.2z" />
  </symbol>
  <symbol viewBox="0 0 13 16" id="icon-location">
    <title>location</title>
    <path d="M6.456 0c.938 0 1.776.161 2.516.484.74.323 1.362.763 1.867 1.32.505.558.89 1.206 1.156 1.946.266.74.399 1.52.399 2.344 0 .833-.164 1.685-.493 2.554-.328.87-.742 1.724-1.242 2.563-.5.838-1.041 1.633-1.625 2.383a45.11 45.11 0 0 1-1.64 2c0 .01-.079.08-.235.21a.828.828 0 0 1-.547.196h-.047a.82.82 0 0 1-.554-.195c-.151-.13-.227-.2-.227-.211a323.864 323.864 0 0 1-1.758-2.047 23.323 23.323 0 0 1-1.75-2.336A15.309 15.309 0 0 1 .933 8.687a6.712 6.712 0 0 1-.54-2.593c0-.823.162-1.604.485-2.344.323-.74.76-1.388 1.312-1.945A6.204 6.204 0 0 1 4.12.485 5.74 5.74 0 0 1 6.456 0zm.188 14.922a35.929 35.929 0 0 0 2.078-2.594 21.328 21.328 0 0 0 1.484-2.336c.396-.734.693-1.427.89-2.078.199-.651.298-1.258.298-1.82 0-.636-.097-1.258-.29-1.867a4.68 4.68 0 0 0-.898-1.633 4.49 4.49 0 0 0-1.539-1.156C8.047 1.145 7.31 1 6.457 1a4.79 4.79 0 0 0-1.954.406 5.173 5.173 0 0 0-1.61 1.102A5.313 5.313 0 0 0 1.8 4.133a4.845 4.845 0 0 0-.406 1.96c0 .74.156 1.49.468 2.25.313.761.709 1.509 1.188 2.243s1.005 1.443 1.578 2.125c.573.682 1.115 1.32 1.625 1.914l.266.297.062.062c.01-.01.024-.02.04-.03.015-.011.023-.022.023-.032zM6.409 3.016a2.88 2.88 0 0 1 2.125.882 2.9 2.9 0 0 1 .875 2.118c0 .833-.291 1.541-.875 2.125a2.893 2.893 0 0 1-2.125.875 2.9 2.9 0 0 1-2.117-.875 2.88 2.88 0 0 1-.883-2.125c0-.823.294-1.529.883-2.118a2.888 2.888 0 0 1 2.117-.882zm0 5c.552 0 1.021-.198 1.406-.594.386-.396.579-.87.579-1.422 0-.552-.196-1.023-.586-1.414A1.927 1.927 0 0 0 6.394 4c-.552 0-1.024.195-1.414.586-.391.39-.586.862-.586 1.414 0 .552.198 1.026.593 1.422.396.396.87.594 1.422.594z"
    fill-rule="evenodd" />
  </symbol>
  <symbol viewBox="0 0 48 57" id="icon-logo-app">
    <title>logo-app</title>
    <path d="M7.988 10.007h31.93a2 2 0 0 1 2 2v23.018a2 2 0 0 1-2 2H7.988a2 2 0 0 1-2-2V12.007a2 2 0 0 1 2-2zm26.258 34.399c.842.422 1.918-.368 3.228-.368 1.31 0 2.386.778 3.228.332.842-.445 1.263-.973 1.263-1.583s-.421-1.137-1.263-1.583c-.842-.445-1.918-.668-3.228-.668-1.31 0-2.386.223-3.228.668-.842.446-1.264.973-1.264 1.583s.422 1.15 1.264 1.619zm-26.948 0c.842.422 1.918-.368 3.228-.368 1.31 0 2.386.778 3.228.332.842-.445 1.264-.973 1.264-1.583s-.422-1.137-1.264-1.583c-.842-.445-1.918-.668-3.228-.668-1.31 0-2.386.223-3.228.668-.842.446-1.263.973-1.263 1.583s.421 1.15 1.263 1.619zM0 41.943V11.97C0 7.185.062 2.995 4.18 1.4 8.295-.195 16.233.008 24 .008S39.704-.195 43.82 1.4C47.939 2.995 48 7.185 48 11.97v29.973c0 2.627-1.03 4.878-3.088 6.755v5.347c0 .844-.28 1.548-.842 2.11-.561.564-1.263.845-2.105.845h-2.947a3.093 3.093 0 0 1-2.176-.844c-.608-.563-.912-1.267-.912-2.111v-3.096H12.07v3.096c0 .844-.304 1.548-.912 2.11A3.093 3.093 0 0 1 8.982 57H6.035c-.842 0-1.544-.281-2.105-.844-.562-.563-.842-1.267-.842-2.111v-5.347C1.029 46.82 0 44.57 0 41.943z"
    fill="#FFF" fill-rule="evenodd" />
  </symbol>
  <symbol viewBox="0 0 107 36" id="icon-logo-roi-white">
    <title>logo-roi-white</title>
    <g fill="none" fill-rule="evenodd">
      <path d="M42.54 10.657V2.002h3.692c.923 0 1.593.072 2.027.234.417.162.76.433 1.014.83.254.396.38.847.38 1.37 0 .65-.199 1.19-.579 1.605-.38.433-.96.685-1.72.793.38.217.688.469.942.721.253.271.579.74.995 1.407l1.068 1.695h-2.1l-1.267-1.875c-.452-.668-.76-1.1-.923-1.263a1.375 1.375 0 0 0-.525-.36c-.18-.072-.47-.09-.887-.09h-.362v3.606H42.54v-.018zm1.737-4.995h1.303c.851 0 1.358-.036 1.575-.108a.922.922 0 0 0 .489-.36c.127-.181.181-.397.181-.65 0-.288-.072-.523-.235-.703-.163-.18-.38-.289-.652-.343-.145-.018-.561-.036-1.285-.036h-1.376v2.2zm10.39 2.993l1.666.27c-.217.614-.543 1.065-1.014 1.39-.452.324-1.032.468-1.72.468-1.086 0-1.9-.36-2.425-1.064-.416-.577-.616-1.298-.616-2.164 0-1.045.272-1.857.815-2.434.543-.595 1.23-.883 2.064-.883.94 0 1.665.306 2.208.92.543.612.796 1.568.778 2.83H52.26c.018.487.145.866.398 1.154.254.27.58.415.96.415.253 0 .488-.072.651-.216.163-.145.308-.361.399-.686zm.091-1.677c-.018-.486-.145-.847-.38-1.1a1.141 1.141 0 0 0-.869-.378c-.362 0-.67.126-.905.397-.235.27-.362.613-.344 1.081h2.498zm5.937-2.596v1.316h-1.14v2.525c0 .505.018.811.036.901.018.09.073.163.145.217.072.054.163.09.29.09.144 0 .38-.054.67-.162l.144 1.28c-.38.162-.832.252-1.321.252-.308 0-.58-.054-.815-.144-.235-.108-.416-.234-.525-.397-.108-.162-.18-.378-.235-.649-.036-.198-.054-.577-.054-1.172V5.7h-.76V4.381h.76V3.138l1.665-.974v2.218h1.14zM66 10.657v-.938a2.406 2.406 0 0 1-.905.794c-.38.198-.76.288-1.176.288-.417 0-.797-.09-1.14-.27-.327-.18-.58-.451-.725-.776-.145-.342-.217-.793-.217-1.388V4.4H63.5v2.885c0 .884.036 1.425.09 1.623.055.198.182.36.327.469.162.108.362.18.615.18.29 0 .543-.072.76-.234a1.2 1.2 0 0 0 .47-.577c.073-.235.128-.794.128-1.695V4.38h1.665v6.276h-1.557zm4.707 0H69.04V4.382h1.539v.883c.272-.414.507-.703.706-.83.217-.125.453-.197.724-.197.38 0 .742.108 1.086.306l-.507 1.443c-.271-.18-.543-.27-.778-.27s-.435.053-.597.198c-.163.126-.29.36-.38.685-.091.342-.145 1.028-.145 2.11v1.947h.018zm8.888 0h-1.666v-3.21c0-.685-.036-1.118-.108-1.316a.996.996 0 0 0-.344-.469.996.996 0 0 0-.58-.162c-.29 0-.543.072-.778.234-.235.163-.38.36-.47.631-.091.253-.127.74-.127 1.443v2.831h-1.666V4.382h1.54v.92c.542-.704 1.248-1.064 2.08-1.064.363 0 .707.072 1.015.198.307.126.543.306.687.505.163.198.272.433.326.703.055.253.09.631.09 1.118v3.895zm-30.411 6.87c0-.36.09-.703.253-1.028.181-.324.416-.577.742-.757.326-.18.688-.27 1.068-.27.616 0 1.123.198 1.503.595.398.396.597.901.597 1.496 0 .613-.199 1.118-.597 1.515-.399.397-.887.595-1.485.595-.38 0-.724-.09-1.068-.252a1.714 1.714 0 0 1-.778-.74c-.145-.288-.235-.685-.235-1.154zm1.104.054c0 .397.09.704.29.92.199.216.416.325.705.325a.93.93 0 0 0 .706-.325c.181-.216.29-.523.29-.92 0-.396-.09-.703-.29-.92-.199-.216-.416-.324-.706-.324a.93.93 0 0 0-.706.325c-.199.216-.29.523-.29.92zm7.404 2.02h-1.068v-2.056c0-.432-.019-.721-.073-.847a.636.636 0 0 0-.217-.307.671.671 0 0 0-.38-.108c-.181 0-.344.054-.507.144a.822.822 0 0 0-.308.397c-.054.162-.09.469-.09.92v1.82H53.98v-4.038h.995v.595c.362-.451.797-.685 1.34-.685.235 0 .452.036.651.126.2.09.344.198.435.324.108.127.163.289.217.451.036.162.054.415.054.721v2.543h.019zm-15.224 12.64v-8.655h1.756v8.656h-1.756zm9.069 0H49.87V29.05c0-.685-.037-1.118-.11-1.316a.915.915 0 0 0-.343-.47.996.996 0 0 0-.58-.162c-.289 0-.542.073-.778.235-.235.162-.38.36-.47.63-.09.253-.127.74-.127 1.444v2.83h-1.665v-6.275h1.538v.92c.543-.703 1.25-1.064 2.082-1.064.362 0 .706.072 1.014.198.307.127.525.307.688.505.162.199.271.433.325.704.055.252.09.63.09 1.118v3.895zm4.562-6.257v1.317h-1.14v2.524c0 .505.017.812.035.902.018.09.073.162.145.216.073.054.163.09.29.09.145 0 .38-.054.67-.162l.144 1.28c-.38.163-.832.253-1.321.253-.308 0-.58-.054-.815-.144-.235-.109-.416-.235-.525-.397-.108-.162-.18-.379-.235-.65-.036-.198-.054-.576-.054-1.171V27.3h-.76v-1.317h.76V24.74l1.665-.974v2.218h1.14zm4.85 4.274l1.666.27c-.217.614-.543 1.064-1.013 1.389-.453.325-1.032.469-1.72.469-1.086 0-1.9-.36-2.426-1.064-.416-.577-.615-1.298-.615-2.164 0-1.046.271-1.857.814-2.434.543-.595 1.231-.884 2.064-.884.941 0 1.665.307 2.208.92.543.613.797 1.55.779 2.83H58.54c.018.488.145.866.399 1.155.253.27.579.415.959.415.253 0 .47-.072.652-.217.163-.144.307-.378.398-.685zm.091-1.677c-.018-.487-.144-.847-.38-1.1a1.141 1.141 0 0 0-.869-.379c-.362 0-.67.127-.905.397s-.344.631-.344 1.082h2.498zm2.95 3.66v-8.655h1.666v8.656H63.99zm3.223 0v-8.655h1.665v8.656h-1.665zm3.24-7.104v-1.533h1.666v1.533h-1.666zm0 7.105v-6.276h1.666v6.276h-1.666zm3.096.414l1.9.235c.037.216.109.378.218.45.163.127.398.18.742.18.434 0 .76-.071.977-.197a.843.843 0 0 0 .326-.415c.054-.144.073-.397.073-.758v-.92c-.507.668-1.123 1.01-1.883 1.01-.85 0-1.52-.36-2.01-1.063-.38-.56-.579-1.263-.579-2.11 0-1.046.254-1.857.76-2.398a2.44 2.44 0 0 1 1.883-.83c.779 0 1.43.343 1.919 1.028v-.884h1.557v5.626c0 .74-.055 1.299-.181 1.66-.127.36-.29.649-.525.865-.217.216-.525.379-.887.487-.362.126-.833.18-1.394.18-1.068 0-1.828-.18-2.263-.54-.452-.361-.67-.83-.67-1.39.019-.071.019-.126.037-.216zm1.484-3.678c0 .667.127 1.154.38 1.46.254.307.58.47.96.47.398 0 .742-.163 1.031-.47.272-.306.417-.793.417-1.406 0-.65-.127-1.136-.399-1.443a1.317 1.317 0 0 0-1.013-.469c-.398 0-.724.163-.996.47-.253.288-.38.757-.38 1.388zm9.72 1.28l1.666.27c-.217.614-.543 1.064-1.014 1.389-.47.325-1.031.469-1.72.469-1.085 0-1.9-.36-2.425-1.064-.416-.577-.615-1.298-.615-2.164 0-1.046.271-1.857.814-2.434.543-.595 1.231-.884 2.064-.884.941 0 1.665.307 2.208.92.543.613.797 1.55.779 2.83h-4.164c.018.488.145.866.398 1.155.254.27.58.415.96.415.253 0 .47-.072.651-.217.163-.144.308-.378.399-.685zm.091-1.677c-.018-.487-.126-.847-.38-1.1a1.141 1.141 0 0 0-.869-.379c-.362 0-.67.127-.905.397s-.362.631-.344 1.082h2.498zm8.599 3.66h-1.666V29.05c0-.685-.036-1.118-.108-1.316a.915.915 0 0 0-.344-.47.996.996 0 0 0-.58-.162c-.29 0-.543.073-.778.235-.235.162-.38.36-.47.63-.091.253-.127.74-.127 1.444v2.83h-1.666v-6.275h1.539v.92c.543-.703 1.249-1.064 2.082-1.064.362 0 .706.072 1.013.198.308.127.525.307.688.505.163.199.272.433.326.704.054.252.09.63.09 1.118v3.895zm6.878-4.417l-1.647.288c-.054-.324-.181-.577-.38-.74a1.17 1.17 0 0 0-.76-.252c-.417 0-.743.145-.996.433-.253.289-.362.758-.362 1.425 0 .74.127 1.262.38 1.569.254.306.58.45 1.014.45.308 0 .58-.09.778-.27.2-.18.344-.487.435-.92l1.629.27c-.181.74-.489 1.317-.978 1.696-.488.378-1.122.577-1.937.577-.923 0-1.647-.289-2.19-.866-.543-.577-.814-1.37-.814-2.398s.271-1.84.832-2.416c.543-.577 1.285-.866 2.227-.866.76 0 1.375.162 1.828.487.416.36.742.865.941 1.533zm4.906 2.434l1.665.27c-.217.614-.543 1.064-1.013 1.389-.453.325-1.032.469-1.72.469-1.086 0-1.9-.36-2.426-1.064-.416-.577-.615-1.298-.615-2.164 0-1.046.271-1.857.814-2.434.543-.595 1.231-.884 2.064-.884.941 0 1.683.307 2.208.92.543.613.797 1.55.779 2.83h-4.164c.018.488.145.866.399 1.155.253.27.579.415.959.415.253 0 .489-.072.652-.217.163-.144.307-.378.398-.685zm.09-1.677c-.018-.487-.144-.847-.38-1.1a1.141 1.141 0 0 0-.869-.379c-.362 0-.67.127-.905.397s-.344.631-.344 1.082h2.498zM15.586.09H35.46v19.908c0 9.286-5.14 15.075-15.477 15.075H.11V15.147C.109 5.878 5.249.09 15.586.09zm15.102 20.134v-8.73h-4.451v8.73c0 3.39-1.19 4.61-2.38 5.358-1.585 1.02-5.01 1.112-6.235-.692-.487-.693-1.929-2.843 1.513-5.267 4.29-3.044 5.335-7.564 2.65-11.519C18.9 3.876 12.683 4.094 9.493 6.1c-3.01 1.913-4.47 4.92-4.47 9.185v15.017h4.452V15.285c0-3.39 1.208-4.61 2.38-5.358 1.585-1.002 5.01-1.094 6.235.71.487.693 1.929 2.844-1.514 5.268-4.307 3.025-5.335 7.563-2.65 11.518 1.64 2.424 4.38 3.39 7.012 3.39 1.982 0 3.91-.529 5.28-1.404 3.01-1.913 4.47-4.92 4.47-9.185zM28.472 9.271c1.37 0 2.487-1.13 2.505-2.533 0-1.404-1.136-2.534-2.505-2.534-1.388 0-2.506 1.148-2.506 2.534 0 1.403 1.118 2.533 2.506 2.533z"
      fill="#FFF" fill-rule="nonzero" />
    </g>
  </symbol>
  <symbol viewBox="0 0 745.5 275" id="icon-logo-roi">
    <title>logo-roi</title>
    <g>
      <g>
        <path fill="#005CB9" d="M163.1,40.5c-57.1,0-85.5,32.1-85.5,83.5v110.5h109.8c57.1,0,85.5-32.1,85.5-83.6V40.5H163.1z" />
        <g>
          <path fill="#010101" d="M312,99.1v-48h20.4c5.1,0,8.8,0.4,11.2,1.3c2.3,0.9,4.2,2.4,5.6,4.6c1.4,2.2,2.1,4.7,2.1,7.6
				c0,3.6-1.1,6.6-3.2,8.9c-2.1,2.4-5.3,3.8-9.5,4.4c2.1,1.2,3.8,2.6,5.2,4c1.4,1.5,3.2,4.1,5.5,7.8l5.9,9.4h-11.6l-7-10.4
				c-2.5-3.7-4.2-6.1-5.1-7c-0.9-1-1.9-1.6-2.9-2c-1-0.4-2.6-0.5-4.9-0.5h-2v20H312z M321.6,71.4h7.2c4.7,0,7.5-0.2,8.7-0.6
				c1.2-0.4,2.1-1.1,2.7-2c0.7-1,1-2.2,1-3.6c0-1.6-0.4-2.9-1.3-3.9c-0.9-1-2.1-1.6-3.6-1.9c-0.8-0.1-3.1-0.2-7.1-0.2h-7.6V71.4z" />
          <path fill="#010101" d="M379,88l9.2,1.5c-1.2,3.4-3,5.9-5.6,7.7c-2.5,1.8-5.7,2.6-9.5,2.6c-6,0-10.5-2-13.4-5.9
				c-2.3-3.2-3.4-7.2-3.4-12c0-5.8,1.5-10.3,4.5-13.5c3-3.3,6.8-4.9,11.4-4.9c5.2,0,9.2,1.7,12.2,5.1c3,3.4,4.4,8.7,4.3,15.7h-23
				c0.1,2.7,0.8,4.8,2.2,6.4c1.4,1.5,3.2,2.3,5.3,2.3c1.4,0,2.7-0.4,3.6-1.2C377.7,91,378.5,89.8,379,88z M379.5,78.7
				c-0.1-2.7-0.8-4.7-2.1-6.1c-1.3-1.4-2.9-2.1-4.8-2.1c-2,0-3.7,0.7-5,2.2c-1.3,1.5-2,3.4-1.9,6H379.5z" />
          <path fill="#010101" d="M412.3,64.3v7.3h-6.3v14c0,2.8,0.1,4.5,0.2,5c0.1,0.5,0.4,0.9,0.8,1.2c0.4,0.3,0.9,0.5,1.6,0.5
				c0.8,0,2.1-0.3,3.7-0.9l0.8,7.1c-2.1,0.9-4.6,1.4-7.3,1.4c-1.7,0-3.2-0.3-4.5-0.8c-1.3-0.6-2.3-1.3-2.9-2.2
				c-0.6-0.9-1-2.1-1.3-3.6c-0.2-1.1-0.3-3.2-0.3-6.5V71.6h-4.2v-7.3h4.2v-6.9l9.2-5.4v12.3H412.3z" />
          <path fill="#010101" d="M441.6,99.1v-5.2c-1.3,1.9-2.9,3.3-5,4.4c-2.1,1.1-4.2,1.6-6.5,1.6c-2.3,0-4.4-0.5-6.3-1.5
				c-1.8-1-3.2-2.5-4-4.3c-0.8-1.9-1.2-4.4-1.2-7.7v-22h9.2v16c0,4.9,0.2,7.9,0.5,9c0.3,1.1,1,2,1.8,2.6c0.9,0.6,2,1,3.4,1
				c1.6,0,3-0.4,4.2-1.3c1.3-0.9,2.1-1.9,2.6-3.2c0.4-1.3,0.7-4.4,0.7-9.4V64.3h9.2v34.8H441.6z" />
          <path fill="#010101" d="M467.6,99.1h-9.2V64.3h8.5v4.9c1.5-2.3,2.8-3.9,3.9-4.6c1.2-0.7,2.5-1.1,4-1.1c2.1,0,4.1,0.6,6,1.7l-2.8,8
				c-1.5-1-3-1.5-4.3-1.5c-1.3,0-2.4,0.3-3.3,1.1c-0.9,0.7-1.6,2-2.1,3.8c-0.5,1.9-0.8,5.7-0.8,11.7V99.1z" />
          <path fill="#010101" d="M516.7,99.1h-9.2V81.3c0-3.8-0.2-6.2-0.6-7.3c-0.4-1.1-1-1.9-1.9-2.6c-0.9-0.6-1.9-0.9-3.2-0.9
				c-1.6,0-3,0.4-4.3,1.3c-1.3,0.9-2.1,2-2.6,3.5c-0.5,1.4-0.7,4.1-0.7,8v15.7H485V64.3h8.5v5.1c3-3.9,6.9-5.9,11.5-5.9
				c2,0,3.9,0.4,5.6,1.1c1.7,0.7,3,1.7,3.8,2.8c0.9,1.1,1.5,2.4,1.8,3.9c0.3,1.4,0.5,3.5,0.5,6.2V99.1z" />
          <path fill="#010101" d="M348.7,137.2c0-2,0.5-3.9,1.4-5.7c1-1.8,2.3-3.2,4.1-4.2c1.8-1,3.8-1.5,5.9-1.5c3.4,0,6.2,1.1,8.3,3.3
				c2.2,2.2,3.3,5,3.3,8.3c0,3.4-1.1,6.2-3.3,8.4c-2.2,2.2-4.9,3.3-8.2,3.3c-2.1,0-4-0.5-5.9-1.4c-1.9-0.9-3.3-2.3-4.3-4.1
				C349.2,142,348.7,139.8,348.7,137.2z M354.8,137.5c0,2.2,0.5,3.9,1.6,5.1c1.1,1.2,2.3,1.8,3.9,1.8c1.5,0,2.8-0.6,3.9-1.8
				c1-1.2,1.6-2.9,1.6-5.1c0-2.2-0.5-3.9-1.6-5.1c-1.1-1.2-2.3-1.8-3.9-1.8c-1.5,0-2.8,0.6-3.9,1.8
				C355.3,133.6,354.8,135.3,354.8,137.5z" />
          <path fill="#010101" d="M395.7,148.7h-5.9v-11.4c0-2.4-0.1-4-0.4-4.7c-0.2-0.7-0.7-1.3-1.2-1.7c-0.6-0.4-1.3-0.6-2.1-0.6
				c-1,0-1.9,0.3-2.8,0.8c-0.8,0.6-1.4,1.3-1.7,2.2c-0.3,0.9-0.5,2.6-0.5,5.1v10.1h-5.9v-22.4h5.5v3.3c2-2.5,4.4-3.8,7.4-3.8
				c1.3,0,2.5,0.2,3.6,0.7c1.1,0.5,1.9,1.1,2.4,1.8c0.6,0.7,0.9,1.6,1.2,2.5c0.2,0.9,0.3,2.3,0.3,4V148.7z" />
          <path fill="#010101" d="M311.6,218.8v-48h9.7v48H311.6z" />
          <path fill="#010101" d="M361.7,218.8h-9.2v-17.7c0-3.8-0.2-6.2-0.6-7.3c-0.4-1.1-1-2-1.9-2.6c-0.9-0.6-1.9-0.9-3.2-0.9
				c-1.6,0-3,0.4-4.3,1.3c-1.3,0.9-2.1,2-2.6,3.5c-0.5,1.4-0.7,4.1-0.7,8v15.7H330v-34.8h8.5v5.1c3-3.9,6.9-5.9,11.5-5.9
				c2,0,3.9,0.4,5.6,1.1c1.7,0.7,2.9,1.7,3.8,2.8c0.9,1.1,1.5,2.4,1.8,3.9c0.3,1.4,0.5,3.5,0.5,6.2V218.8z" />
          <path fill="#010101" d="M386.9,184.1v7.3h-6.3v14c0,2.8,0.1,4.5,0.2,5c0.1,0.5,0.4,0.9,0.8,1.2c0.4,0.3,0.9,0.5,1.6,0.5
				c0.8,0,2.1-0.3,3.7-0.9l0.8,7.1c-2.1,0.9-4.6,1.4-7.3,1.4c-1.7,0-3.2-0.3-4.5-0.8c-1.3-0.6-2.3-1.3-2.9-2.2
				c-0.6-0.9-1-2.1-1.3-3.6c-0.2-1.1-0.3-3.2-0.3-6.5v-15.2h-4.2v-7.3h4.2v-6.9l9.2-5.4v12.3H386.9z" />
          <path fill="#010101" d="M413.7,207.8l9.2,1.5c-1.2,3.4-3,5.9-5.6,7.7c-2.5,1.8-5.7,2.6-9.5,2.6c-6,0-10.5-2-13.4-5.9
				c-2.3-3.2-3.4-7.2-3.4-12c0-5.8,1.5-10.3,4.5-13.5c3-3.3,6.8-4.9,11.4-4.9c5.2,0,9.2,1.7,12.2,5.1c3,3.4,4.4,8.6,4.3,15.7h-23
				c0.1,2.7,0.8,4.8,2.2,6.4c1.4,1.5,3.2,2.3,5.3,2.3c1.4,0,2.6-0.4,3.6-1.2C412.4,210.8,413.2,209.5,413.7,207.8z M414.2,198.5
				c-0.1-2.7-0.8-4.7-2.1-6.1c-1.3-1.4-2.9-2.1-4.8-2.1c-2,0-3.7,0.7-5,2.2c-1.3,1.5-1.9,3.5-1.9,6H414.2z" />
          <path fill="#010101" d="M430.5,218.8v-48h9.2v48H430.5z" />
          <path fill="#010101" d="M448.3,218.8v-48h9.2v48H448.3z" />
          <path fill="#010101" d="M466.2,179.4v-8.5h9.2v8.5H466.2z M466.2,218.8v-34.8h9.2v34.8H466.2z" />
          <path fill="#010101" d="M483.3,221.1l10.5,1.3c0.2,1.2,0.6,2.1,1.2,2.5c0.9,0.7,2.2,1,4.1,1c2.4,0,4.2-0.4,5.4-1.1
				c0.8-0.5,1.4-1.3,1.8-2.3c0.3-0.8,0.4-2.2,0.4-4.2v-5.1c-2.8,3.7-6.2,5.6-10.4,5.6c-4.7,0-8.4-2-11.1-5.9
				c-2.1-3.1-3.2-7-3.2-11.7c0-5.8,1.4-10.3,4.2-13.3c2.8-3.1,6.3-4.6,10.4-4.6c4.3,0,7.9,1.9,10.6,5.7v-4.9h8.6v31.2
				c0,4.1-0.3,7.2-1,9.2c-0.7,2-1.6,3.6-2.9,4.8c-1.2,1.2-2.9,2.1-4.9,2.7c-2,0.7-4.6,1-7.7,1c-5.9,0-10.1-1-12.5-3
				c-2.5-2-3.7-4.6-3.7-7.7C483.2,221.9,483.2,221.6,483.3,221.1z M491.5,200.7c0,3.7,0.7,6.4,2.1,8.1c1.4,1.7,3.2,2.6,5.3,2.6
				c2.2,0,4.1-0.9,5.7-2.6c1.5-1.7,2.3-4.4,2.3-7.8c0-3.6-0.7-6.3-2.2-8c-1.5-1.7-3.4-2.6-5.6-2.6c-2.2,0-4,0.9-5.5,2.6
				C492.2,194.6,491.5,197.2,491.5,200.7z" />
          <path fill="#010101" d="M545.2,207.8l9.2,1.5c-1.2,3.4-3,5.9-5.6,7.7c-2.6,1.8-5.7,2.6-9.5,2.6c-6,0-10.5-2-13.4-5.9
				c-2.3-3.2-3.4-7.2-3.4-12c0-5.8,1.5-10.3,4.5-13.5c3-3.3,6.8-4.9,11.4-4.9c5.2,0,9.2,1.7,12.2,5.1c3,3.4,4.4,8.6,4.3,15.7h-23
				c0.1,2.7,0.8,4.8,2.2,6.4c1.4,1.5,3.2,2.3,5.3,2.3c1.4,0,2.6-0.4,3.6-1.2C543.9,210.8,544.7,209.5,545.2,207.8z M545.7,198.5
				c-0.1-2.7-0.7-4.7-2.1-6.1c-1.3-1.4-2.9-2.1-4.8-2.1c-2,0-3.7,0.7-5,2.2c-1.3,1.5-2,3.5-1.9,6H545.7z" />
          <path fill="#010101" d="M593.2,218.8H584v-17.7c0-3.8-0.2-6.2-0.6-7.3c-0.4-1.1-1-2-1.9-2.6c-0.9-0.6-1.9-0.9-3.2-0.9
				c-1.6,0-3,0.4-4.3,1.3c-1.3,0.9-2.1,2-2.6,3.5c-0.5,1.4-0.7,4.1-0.7,8v15.7h-9.2v-34.8h8.5v5.1c3-3.9,6.9-5.9,11.5-5.9
				c2,0,3.9,0.4,5.6,1.1c1.7,0.7,2.9,1.7,3.8,2.8c0.9,1.1,1.5,2.4,1.8,3.9c0.3,1.4,0.5,3.5,0.5,6.2V218.8z" />
          <path fill="#010101" d="M631.2,194.3l-9.1,1.6c-0.3-1.8-1-3.2-2.1-4.1c-1.1-0.9-2.5-1.4-4.2-1.4c-2.3,0-4.1,0.8-5.5,2.4
				c-1.4,1.6-2,4.2-2,7.9c0,4.1,0.7,7,2.1,8.7c1.4,1.7,3.2,2.5,5.6,2.5c1.7,0,3.2-0.5,4.3-1.5c1.1-1,1.9-2.7,2.4-5.1l9,1.5
				c-1,4.1-2.7,7.3-5.4,9.4c-2.7,2.1-6.2,3.2-10.7,3.2c-5.1,0-9.1-1.6-12.1-4.8c-3-3.2-4.5-7.6-4.5-13.3c0-5.7,1.5-10.2,4.6-13.4
				c3-3.2,7.1-4.8,12.3-4.8c4.2,0,7.6,0.9,10.1,2.7C628.3,187.8,630.1,190.6,631.2,194.3z" />
          <path fill="#010101" d="M658.3,207.8l9.2,1.5c-1.2,3.4-3,5.9-5.6,7.7c-2.5,1.8-5.7,2.6-9.5,2.6c-6,0-10.5-2-13.4-5.9
				c-2.3-3.2-3.4-7.2-3.4-12c0-5.8,1.5-10.3,4.5-13.5c3-3.3,6.8-4.9,11.4-4.9c5.2,0,9.3,1.7,12.2,5.1c3,3.4,4.4,8.6,4.3,15.7h-23
				c0.1,2.7,0.8,4.8,2.2,6.4c1.4,1.5,3.2,2.3,5.3,2.3c1.4,0,2.7-0.4,3.6-1.2C657,210.8,657.8,209.5,658.3,207.8z M658.8,198.5
				c-0.1-2.7-0.8-4.7-2.1-6.1c-1.3-1.4-2.9-2.1-4.8-2.1c-2,0-3.7,0.7-5,2.2c-1.3,1.5-1.9,3.5-1.9,6H658.8z" /> </g>
      </g>
      <g>
        <path fill="#FFFFFF" d="M246.4,152c0,23.4-8.1,39.9-24.8,50.4c-7.6,4.8-18.3,7.7-29.3,7.7c-14.6,0-29.8-5.3-38.9-18.6
			c-14.9-21.7-9.2-46.6,14.7-63.2c19.1-13.3,11.1-25.1,8.4-28.9c-6.8-9.9-25.8-9.4-34.6-3.9c-6.5,4.1-13.2,10.8-13.2,29.4v82.4H104
			v-82.4c0-23.4,8.1-39.9,24.8-50.4C146.5,63.5,181,62.3,197,85.5c14.9,21.7,9.1,46.5-14.7,63.2c-19.1,13.3-11.1,25.1-8.4,28.9
			c6.8,9.9,25.8,9.4,34.6,3.8c6.6-4.1,13.2-10.8,13.2-29.4v-47.9h24.7V152z" />
        <path fill="#FFFFFF" d="M234.1,91.9c-7.7,0-13.9-6.2-13.9-13.9c0-7.6,6.2-13.9,13.9-13.9c7.6,0,13.9,6.2,13.9,13.9
			C247.9,85.7,241.7,91.9,234.1,91.9z" /> </g>
    </g>
  </symbol>
  <symbol viewBox="0 0 227 17" id="icon-logo-technopolis-white">
    <title>logo-technopolis-white</title>
    <g fill="#FFF" fill-rule="evenodd">
      <path d="M.1 4.4H7v12.1h5V4.4h6.9V.3H.1zM20.9 16.5h17.9v-3.9h-13V10h12.1V6.7H25.8V4.1h12.7V.3H20.9zM40.6 10.8c0 4.7 2.7 5.8 7.1 5.8h8c5 0 5.9-2.1 5.9-4.9v-1.5h-4.9c0 2-.7 2.2-2.9 2.2h-5.3c-2.3 0-2.8-.9-2.8-3.2V7.5c0-2 .5-3.2 3.1-3.2h5.4c1.5 0 2.3.3 2.3 1.5v.4h4.9c0-4.6-.9-6.1-7.9-6.1h-5.8c-4.5 0-7.1 1.1-7.1 5.8v4.9zM63.9 16.5h4.9v-6.1h10.4v6.1h5V.3h-5v5.8H68.8V.3h-4.9zM87 16.5h5V4.8l9.3 11.7h7.7V.3h-5v11.8L94.7.3H87zM111.5 10.8c0 4.7 2.7 5.8 7.1 5.8h7.9c4.5 0 7.1-1.1 7.1-5.8V6c0-4.7-2.7-5.8-7.1-5.8h-7.9c-4.5 0-7.1 1.1-7.1 5.8v4.8zm5.1-3.3c0-2 .5-3.2 3.1-3.2h5.8c2.6 0 3.1 1.2 3.1 3.2v1.7c0 2.3-.5 3.2-2.8 3.2h-6.3c-2.3 0-2.8-.9-2.8-3.2V7.5h-.1zM136.1 16.5h4.9v-4.1h9.8c3.5 0 4.5-2.8 4.5-5.2V5.8c0-3.2-1.1-5.5-5.8-5.5H136v16.2h.1zm5-12.1h7.3c1.5 0 2 .6 2 1.7v.6c0 1-.4 1.7-1.6 1.7h-7.7v-4zM156.9 10.8c0 4.7 2.7 5.8 7.1 5.8h7.9c4.5 0 7.1-1.1 7.1-5.8V6c0-4.7-2.7-5.8-7.1-5.8H164c-4.5 0-7.1 1.1-7.1 5.8v4.8zm5.1-3.3c0-2 .5-3.2 3.1-3.2h5.8c2.6 0 3.1 1.2 3.1 3.2v1.7c0 2.3-.5 3.2-2.8 3.2h-6.3c-2.3 0-2.8-.9-2.8-3.2V7.5h-.1zM181.1 16.5h16.1v-4.2h-11.1V.3h-5zM199.1.3h4.9v16.1h-4.9zM206.1 12.3c0 3.5 1.8 4.3 6.3 4.3h6c6.6 0 8-.7 8-5.1 0-4.7-1.8-5.2-9.5-5.1-5.3 0-5.9 0-5.9-1.4 0-.9.8-1.2 1.9-1.2h5.5c2.3 0 2.4.5 2.4 1.7h4.9V5c0-2.8-.5-4.8-6.2-4.8h-6.9c-6.2 0-6.5 2.3-6.5 5.2 0 4 .8 4.9 8.3 4.9 6.4 0 7 .1 7 1.5 0 1.2-1.1 1.4-2.1 1.4h-6.1c-1.4 0-2.1-.1-2.1-1.8h-4.9v.9h-.1z"
      />
    </g>
  </symbol>
  <symbol viewBox="0 0 242.5 32" id="icon-logo-technopolis">
    <title>logo-technopolis</title>
    <path class="st0" d="M8.1 14.4H15v12.1h5V14.4h6.9v-4.1H8.1zM28.9 26.5h17.9v-3.9h-13V20h12.1v-3.3H33.8v-2.6h12.7v-3.8H28.9zM48.6 20.8c0 4.7 2.7 5.8 7.1 5.8h8c5 0 5.9-2.1 5.9-4.9v-1.5h-4.9c0 2-.7 2.2-2.9 2.2h-5.3c-2.3 0-2.8-.9-2.8-3.2v-1.7c0-2 .5-3.2 3.1-3.2h5.4c1.5 0 2.3.3 2.3 1.5v.4h4.9c0-4.6-.9-6.1-7.9-6.1h-5.8c-4.5 0-7.1 1.1-7.1 5.8v4.9zM71.9 26.5h4.9v-6.1h10.4v6.1h5V10.3h-5v5.8H76.8v-5.8h-4.9zM95 26.5h5V14.8l9.3 11.7h7.7V10.3h-5v11.8l-9.3-11.8H95zM119.5 20.8c0 4.7 2.7 5.8 7.1 5.8h7.9c4.5 0 7.1-1.1 7.1-5.8V16c0-4.7-2.7-5.8-7.1-5.8h-7.9c-4.5 0-7.1 1.1-7.1 5.8v4.8zm5.1-3.3c0-2 .5-3.2 3.1-3.2h5.8c2.6 0 3.1 1.2 3.1 3.2v1.7c0 2.3-.5 3.2-2.8 3.2h-6.3c-2.3 0-2.8-.9-2.8-3.2v-1.7zM144.1 26.5h4.9v-4.1h9.8c3.5 0 4.5-2.8 4.5-5.2v-1.4c0-3.2-1.1-5.5-5.8-5.5H144v16.2zm5-12.1h7.3c1.5 0 2 .6 2 1.7v.6c0 1-.4 1.7-1.6 1.7h-7.7v-4zM164.9 20.8c0 4.7 2.7 5.8 7.1 5.8h7.9c4.5 0 7.1-1.1 7.1-5.8V16c0-4.7-2.7-5.8-7.1-5.8H172c-4.5 0-7.1 1.1-7.1 5.8v4.8zm5.1-3.3c0-2 .5-3.2 3.1-3.2h5.8c2.6 0 3.1 1.2 3.1 3.2v1.7c0 2.3-.5 3.2-2.8 3.2h-6.3c-2.3 0-2.8-.9-2.8-3.2v-1.7zM189.1 26.5h16.1v-4.2h-11.1v-12h-5zM207.1 10.3h4.9v16.1h-4.9zM214.1 22.3c0 3.5 1.8 4.3 6.3 4.3h6c6.6 0 8-.7 8-5.1 0-4.7-1.8-5.2-9.5-5.1-5.3 0-5.9 0-5.9-1.4 0-.9.8-1.2 1.9-1.2h5.5c2.3 0 2.4.5 2.4 1.7h4.9V15c0-2.8-.5-4.8-6.2-4.8h-6.9c-6.2 0-6.5 2.3-6.5 5.2 0 4 .8 4.9 8.3 4.9 6.4 0 7 .1 7 1.5 0 1.2-1.1 1.4-2.1 1.4h-6.1c-1.4 0-2.1-.1-2.1-1.8h-4.9v.9z"
    />
    <g>
      <path class="st1" d="M261.1 14.4h6.9v12.1h5V14.4h6.9v-4.1h-18.8zM281.9 26.5h17.9v-3.9h-13V20h12.1v-3.3h-12.1v-2.6h12.7v-3.8h-17.6zM301.6 20.8c0 4.7 2.7 5.8 7.1 5.8h8c5 0 5.9-2.1 5.9-4.9v-1.5h-4.9c0 2-.7 2.2-2.9 2.2h-5.3c-2.3 0-2.8-.9-2.8-3.2v-1.7c0-2 .5-3.2 3.1-3.2h5.4c1.5 0 2.3.3 2.3 1.5v.4h4.9c0-4.6-.9-6.1-7.9-6.1h-5.8c-4.5 0-7.1 1.1-7.1 5.8v4.9zM324.9 26.5h4.9v-6.1h10.4v6.1h5V10.3h-5v5.8h-10.4v-5.8h-4.9zM348 26.5h5V14.8l9.3 11.7h7.7V10.3h-5v11.8l-9.3-11.8H348zM372.5 20.8c0 4.7 2.7 5.8 7.1 5.8h7.9c4.5 0 7.1-1.1 7.1-5.8V16c0-4.7-2.7-5.8-7.1-5.8h-7.9c-4.5 0-7.1 1.1-7.1 5.8v4.8zm5.1-3.3c0-2 .5-3.2 3.1-3.2h5.8c2.6 0 3.1 1.2 3.1 3.2v1.7c0 2.3-.5 3.2-2.8 3.2h-6.3c-2.3 0-2.8-.9-2.8-3.2v-1.7zM397.1 26.5h4.9v-4.1h9.8c3.5 0 4.5-2.8 4.5-5.2v-1.4c0-3.2-1.1-5.5-5.8-5.5H397v16.2zm5-12.1h7.3c1.5 0 2 .6 2 1.7v.6c0 1-.4 1.7-1.6 1.7h-7.7v-4zM417.9 20.8c0 4.7 2.7 5.8 7.1 5.8h7.9c4.5 0 7.1-1.1 7.1-5.8V16c0-4.7-2.7-5.8-7.1-5.8H425c-4.5 0-7.1 1.1-7.1 5.8v4.8zm5.1-3.3c0-2 .5-3.2 3.1-3.2h5.8c2.6 0 3.1 1.2 3.1 3.2v1.7c0 2.3-.5 3.2-2.8 3.2h-6.3c-2.3 0-2.8-.9-2.8-3.2v-1.7zM442.1 26.5h16.1v-4.2h-11.1v-12h-5zM460.1 10.3h4.9v16.1h-4.9zM467.1 22.3c0 3.5 1.8 4.3 6.3 4.3h6c6.6 0 8-.7 8-5.1 0-4.7-1.8-5.2-9.5-5.1-5.3 0-5.9 0-5.9-1.4 0-.9.8-1.2 1.9-1.2h5.5c2.3 0 2.4.5 2.4 1.7h4.9V15c0-2.8-.5-4.8-6.2-4.8h-6.9c-6.2 0-6.5 2.3-6.5 5.2 0 4 .8 4.9 8.3 4.9 6.4 0 7 .1 7 1.5 0 1.2-1.1 1.4-2.1 1.4h-6.1c-1.4 0-2.1-.1-2.1-1.8h-4.9v.9z"
      />
    </g>
  </symbol>
  <symbol viewBox="0 0 17 16" id="icon-phone">
    <title>phone</title>
    <path d="M4.487.578c.292.406.612.87.961 1.39.35.522.727 1.1 1.133 1.735a.906.906 0 0 1 .133.563 1.63 1.63 0 0 1-.227.671c-.052.105-.14.271-.265.5l-.485.891c.22.313.498.662.836 1.047.339.385.732.802 1.18 1.25.458.458.878.857 1.258 1.195.38.339.721.617 1.023.836.354-.208.649-.377.883-.508.234-.13.404-.22.508-.273.125-.073.252-.128.383-.164.13-.037.252-.055.367-.055a.947.947 0 0 1 .484.125c.469.282.964.597 1.485.946a94.3 94.3 0 0 1 1.671 1.148.813.813 0 0 1 .25.281c.063.115.105.24.125.375.01.146-.005.295-.046.446a1.607 1.607 0 0 1-.22.46 2.174 2.174 0 0 1-.187.266 17.2 17.2 0 0 1-.297.36c-.104.135-.24.289-.406.46-.166.172-.364.362-.594.57-.218.21-.419.365-.601.47-.182.104-.341.156-.477.156h-.03a5.682 5.682 0 0 1-1.704-.352 10.628 10.628 0 0 1-1.875-.914A17.322 17.322 0 0 1 7.69 12.97a34.638 34.638 0 0 1-2.25-2.047 30.86 30.86 0 0 1-2.054-2.25A18.588 18.588 0 0 1 1.9 6.609a9.848 9.848 0 0 1-.914-1.882A5.877 5.877 0 0 1 .644 3.03c0-.146.052-.31.156-.492.104-.182.26-.388.469-.617a13 13 0 0 1 .562-.586c.167-.162.318-.294.453-.399.125-.093.245-.182.36-.265.114-.083.213-.156.296-.219.115-.083.235-.143.36-.18.125-.036.26-.054.406-.054.167 0 .315.028.445.086.13.057.243.148.336.273zm-1 .64a7.412 7.412 0 0 0-.609.477c-.198.172-.39.352-.578.54a6.416 6.416 0 0 0-.445.484c-.11.135-.18.25-.211.344.02.468.13.968.328 1.5.198.53.484 1.096.86 1.695.374.599.838 1.229 1.39 1.89a31.741 31.741 0 0 0 1.922 2.086c.729.73 1.424 1.37 2.086 1.922a17.361 17.361 0 0 0 1.89 1.39 9.333 9.333 0 0 0 1.703.86c.537.198 1.04.313 1.508.344.073-.031.177-.104.313-.219.135-.114.296-.265.484-.453.187-.187.365-.383.531-.586.167-.203.328-.409.485-.617a.37.37 0 0 0 .062-.117.169.169 0 0 0 0-.102 63.305 63.305 0 0 0-1.664-1.14c-.505-.334-.96-.63-1.367-.891a.495.495 0 0 0-.14.023 1.09 1.09 0 0 0-.173.07c-.083.053-.24.141-.468.266l-.891.485-.516.312-.515-.344c-.334-.229-.7-.523-1.102-.882-.4-.36-.841-.779-1.32-1.258-.469-.48-.88-.92-1.235-1.32a11.783 11.783 0 0 1-.875-1.102l-.375-.484.313-.547a89.647 89.647 0 0 1 .75-1.36 1.09 1.09 0 0 0 .07-.171.495.495 0 0 0 .024-.141c-.365-.573-.711-1.11-1.04-1.61a72.14 72.14 0 0 0-.945-1.406h-.03a.425.425 0 0 0-.118.016.36.36 0 0 0-.102.047z"
    fill-rule="evenodd" />
  </symbol>
  <symbol viewBox="0 0 25 25" id="icon-route">
    <title>route</title>
    <path d="M24.186 4.86c.125.14.188.304.188.492 0 .187-.063.359-.188.515l-2.344 2.625a.747.747 0 0 1-.563.258h-8.202v1.5H19.1c.203 0 .38.07.528.21a.71.71 0 0 1 .222.54v5.25a.71.71 0 0 1-.222.54.741.741 0 0 1-.528.21h-6.023v6.797a.658.658 0 0 1-.223.492.741.741 0 0 1-.527.211.741.741 0 0 1-.528-.21.658.658 0 0 1-.222-.493V17H3.42a1.07 1.07 0 0 1-.316-.047.492.492 0 0 1-.246-.164L.514 14.141a.718.718 0 0 1-.187-.493c0-.187.062-.351.187-.492l2.344-2.672a.57.57 0 0 1 .246-.175.874.874 0 0 1 .316-.059h8.157v-1.5h-6a.72.72 0 0 1-.528-.223A.72.72 0 0 1 4.827 8V2.75a.72.72 0 0 1 .222-.527A.72.72 0 0 1 5.577 2h6v-.797c0-.187.074-.351.222-.492A.741.741 0 0 1 12.327.5c.203 0 .379.07.527.21.149.142.223.306.223.493V2h8.203a.747.747 0 0 1 .562.258l2.344 2.601zM18.35 15.5v-3.75H3.75l-1.664 1.898L3.749 15.5H18.35zm2.602-8.25l1.664-1.898L20.952 3.5H6.327v3.75h14.625z"
    fill-rule="evenodd" />
  </symbol>
</svg>